<?xml version="1.0" encoding="UTF-8"?>
<svg width="397px" height="133px" viewBox="0 0 397 133" version="1.1" xmlns="http://www.w3.org/2000/svg" xmlns:xlink="http://www.w3.org/1999/xlink">
    <!-- Generator: Sketch 64 (93537) - https://sketch.com -->
    <title>Group</title>
    <desc>Created with Sketch.</desc>
    <defs>
        <polygon id="path-1" points="0.767563473 0.413945631 380.767563 0.413945631 380.767563 46.4139456 0.767563473 46.4139456"></polygon>
    </defs>
    <g id="Page-1" stroke="none" stroke-width="1" fill="none" fill-rule="evenodd">
        <g id="Desktop-Copy" transform="translate(-21.000000, -247.000000)">
            <g id="bad-for-billionaires-copy" transform="translate(-7.000000, -102.000000)">
                <g id="Group" transform="translate(29.253772, 349.635527)">
                    <polygon id="Path-2" stroke="#979797" fill="#FFDC4D" points="0.0798977614 80.7688911 11.5032147 131.364473 394.746228 55.8529844 382.883478 0.805780617"></polygon>
                    <g id="Group-3-Copy" transform="translate(196.500000, 67.500000) rotate(-12.000000) translate(-196.500000, -67.500000) translate(6.000000, 44.000000)">
                        <mask id="mask-2" fill="white">
                            <use xlink:href="#path-1"></use>
                        </mask>
                        <g id="Clip-2"></g>
                        <path d="M379.016435,17.950584 L378.450284,17.950584 L378.167209,17.6092478 L378.167209,16.9262964 L378.450284,16.5846811 L378.733359,16.9262964 L379.016435,17.2676326 L379.29951,17.6092478 L379.016435,17.950584 Z M377.317983,15.2190573 C376.471521,15.6273769 376.073723,14.1802567 376.751832,13.8531545 C377.598294,13.4448349 377.996092,14.8919551 377.317983,15.2190573 L377.317983,15.2190573 Z M377.317983,37.0721078 L377.034907,37.4137231 L376.751832,37.7550593 L376.468757,37.4137231 L376.468757,36.7307717 L376.751832,36.3891564 L377.317983,36.3891564 L377.601058,36.7307717 L377.317983,37.0721078 Z M375.336456,22.730965 C371.181275,22.8626989 376.113531,21.5651749 373.638004,19.657823 L374.48723,18.6335354 C374.924283,20.7516059 375.620084,19.6966176 376.468757,19.9994383 C376.592602,20.0435357 378.740823,18.4540758 376.468757,20.6821106 C376.417062,20.7884468 375.93882,20.6597828 375.336456,22.730965 L375.336456,22.730965 Z M375.902606,42.8767764 C375.320146,45.2834336 371.751572,41.9898047 375.05338,41.8524888 C375.724302,41.8248582 376.114913,41.999015 375.902606,42.8767764 L375.902606,42.8767764 Z M372.222627,37.0721078 C372.121174,37.0598276 370.492938,35.3478439 371.090326,35.0235326 C375.672608,35.1608486 375.22975,37.4430283 372.222627,37.0721078 L372.222627,37.0721078 Z M371.6562,18.6335354 L372.222627,18.6335354 L372.505703,18.9748716 L372.505703,19.657823 L372.222627,19.9994383 L371.939552,19.657823 L371.6562,19.3164869 L371.373401,18.9748716 L371.6562,18.6335354 Z M370.524175,30.925824 L369.957748,30.925824 L369.67495,30.5844878 L369.67495,29.9015364 L369.957748,29.5602002 L370.240824,29.9015364 L370.524175,30.2431517 L370.807251,30.5844878 L370.524175,30.925824 Z M370.524175,39.8039136 L370.240824,40.1452498 L369.957748,40.486865 L369.67495,40.1452498 L369.67495,39.4622983 L369.957748,39.1209621 L370.524175,39.1209621 L370.807251,39.4622983 L370.524175,39.8039136 Z M367.693422,37.7550593 C367.225408,37.4901958 366.338034,36.0419592 367.126995,35.706205 C374.178998,36.7927313 368.010223,37.9345189 367.693422,37.7550593 L367.693422,37.7550593 Z M365.145468,28.1942974 C365.059495,28.1965301 365.038486,29.6640245 363.447016,28.5359126 C364.467912,26.7474562 364.685747,28.3779435 365.145468,28.1942974 C365.307739,28.1295467 368.284453,25.6000866 367.410071,28.5359126 C367.115938,29.5239176 366.289933,28.1658294 365.145468,28.1942974 L365.145468,28.1942974 Z M365.994694,38.4380107 C365.148509,38.8463303 364.750711,37.39921 365.428544,37.0721078 C366.275005,36.6637883 366.672803,38.1109085 365.994694,38.4380107 L365.994694,38.4380107 Z M364.862393,30.2431517 C365.708578,29.8348321 366.106653,31.2816732 365.428544,31.6087754 C364.582358,32.017095 364.18456,30.5702539 364.862393,30.2431517 L364.862393,30.2431517 Z M363.730092,32.9746783 L363.163941,32.9746783 L362.880866,32.6333421 L362.880866,31.9503907 L363.163941,31.6087754 L363.447016,31.9503907 L363.730092,32.2917269 L364.013167,32.6333421 L363.730092,32.9746783 Z M362.59779,15.2190573 C361.751329,15.6273769 361.353531,14.1802567 362.03164,13.8531545 C362.878101,13.4448349 363.2759,14.8919551 362.59779,15.2190573 L362.59779,15.2190573 Z M362.03164,43.9013431 C361.581871,44.107317 359.733865,41.621117 361.465489,41.8524888 C361.836196,41.9021681 362.822813,43.5387955 362.03164,43.9013431 L362.03164,43.9013431 Z M360.333188,15.9020088 L360.050113,16.2433449 L359.767037,16.5846811 L359.483962,16.2433449 L359.483962,15.5603935 L359.767037,15.2190573 L360.333188,15.2190573 L360.616263,15.5603935 L360.333188,15.9020088 Z M359.483962,40.1452498 L359.200887,40.486865 L358.917812,40.1452498 L358.634736,39.8039136 L358.351661,39.4622983 L358.634736,39.1209621 L359.200887,39.1209621 L359.483962,39.4622983 L359.483962,40.1452498 Z M357.78551,34.6819174 L358.068586,34.3405812 L358.351661,33.9989659 L358.634736,33.6576298 L358.917812,33.9989659 L358.917812,34.6819174 L358.634736,35.0235326 L358.068586,35.0235326 L357.78551,34.6819174 Z M358.068586,13.8531545 C358.914771,13.4448349 359.312569,14.8919551 358.634736,15.2190573 C357.788275,15.6273769 357.390476,14.1802567 358.068586,13.8531545 L358.068586,13.8531545 Z M358.068586,4.29239254 C358.914771,3.88407299 359.312569,5.33119322 358.634736,5.65829542 C357.788275,6.06661497 357.390476,4.61949474 358.068586,4.29239254 L358.068586,4.29239254 Z M368.542372,33.3160145 L368.542372,33.9989659 L368.259297,34.3405812 L367.976221,33.9989659 L367.693422,33.6576298 L367.410071,33.3160145 L367.693422,32.9746783 L368.259297,32.9746783 L368.542372,33.3160145 Z M367.126995,15.2190534 C370.200187,15.3323709 366.915518,20.018696 366.277769,16.2433449 C366.265882,16.1724542 367.067008,15.2168246 367.126995,15.2190534 L367.126995,15.2190534 Z M369.108799,21.7066773 L369.391874,21.3650621 L369.67495,21.7066773 L369.957748,22.0480135 L370.240824,22.3896288 L369.957748,22.730965 L369.391874,22.730965 L369.108799,22.3896288 L369.108799,21.7066773 Z M356.370134,7.02391919 C356.082083,7.22459025 354.868231,4.80146627 355.803707,4.29239254 C356.861645,3.71689362 356.977198,6.60080747 356.370134,7.02391919 L356.370134,7.02391919 Z M347.413178,32.9746783 L347.877598,32.9746783 L348.160673,33.3160145 L348.160673,33.9989659 L347.877598,34.3405812 L347.594523,33.9989659 L347.311448,33.6576298 L347.028372,33.3160145 L347.303984,32.9838885 C347.17378,32.9919824 347.042747,32.9978434 346.911438,33.0006344 L346.911438,31.3818692 C348.23863,30.962944 349.372037,30.3489296 349.427325,28.8138937 C349.482613,27.0555798 347.436952,26.3296474 346.10976,25.7435427 C342.62633,24.2643263 339.391974,22.6734709 339.391974,18.2910829 C339.391974,14.0485227 342.432822,11.4250067 346.496777,11.285458 L346.496777,12.9045023 C345.446302,13.2670498 344.534048,14.0485227 344.534048,15.1931013 C344.534048,16.5606787 345.280438,17.3979711 348.570359,18.6820984 C349.798861,19.1585177 350.788519,19.680709 351.581904,20.236392 C351.626964,20.1286604 351.706026,20.0429775 351.840652,19.9994383 C352.549446,19.769462 352.811789,20.554284 352.762029,21.2252343 C354.163307,22.6458402 354.569399,24.2188334 354.569399,25.7714525 C354.569399,29.9196777 351.289983,32.6807887 347.413178,32.9746783 L347.413178,32.9746783 Z M348.726824,36.0478202 L349.009899,35.706205 L349.57605,35.706205 L349.859125,36.0478202 L349.859125,36.7307717 L349.57605,37.0721078 L349.292975,36.7307717 L349.009899,36.3891564 L348.726824,36.0478202 Z M349.009899,39.8039136 C348.886883,39.7852141 347.88368,38.791069 348.443749,38.4380107 C350.375793,37.2203086 350.977605,40.1011524 349.009899,39.8039136 L349.009899,39.8039136 Z M349.57605,43.9013431 L349.292975,44.2426793 L349.009899,44.5840155 L348.726824,44.2426793 L348.726824,43.5597278 L349.009899,43.2183917 L349.57605,43.2183917 L349.859125,43.5597278 L349.57605,43.9013431 Z M345.667455,33.0006344 C343.26242,32.9445358 342.737183,31.9676947 341.74172,31.9676947 C341.196302,31.9676947 341.018551,32.3176829 340.800439,32.5858956 L340.800439,32.6333421 L340.517364,32.9746783 L339.95149,32.9746783 L339.708222,32.6813469 C339.393632,32.3726651 339.391974,31.8164239 339.391974,31.7165071 L339.391974,26.3296474 C339.391974,25.7547066 339.499786,24.993887 340.234289,24.9648609 L340.234289,24.438204 L340.517364,24.0968678 L340.800439,24.438204 L341.083514,24.7798193 L341.366866,25.1211554 L341.112817,25.4276044 C341.205701,25.5657577 341.271218,25.7220522 341.299691,25.8833705 C341.686432,28.1161501 343.234776,30.8792147 345.667455,31.3818692 L345.667455,33.0006344 Z M342.782243,41.8524888 C341.935781,42.2608084 341.537983,40.8136881 342.215816,40.486865 C343.062277,40.0782664 343.460075,41.5253866 342.782243,41.8524888 L342.782243,41.8524888 Z M343.065318,44.2426793 L342.782243,44.5840155 L342.498891,44.2426793 L342.215816,43.9013431 L341.933017,43.5597278 L342.215816,43.2183917 L342.782243,43.2183917 L343.065318,43.5597278 L343.065318,44.2426793 Z M341.083514,36.3891564 L340.800439,36.7307717 L340.517364,37.0721078 L340.234289,36.7307717 L340.234289,36.0478202 L340.517364,35.706205 L341.083514,35.706205 L341.366866,36.0478202 L341.083514,36.3891564 Z M340.517364,44.5840155 L339.95149,44.5840155 L339.668138,44.2426793 L339.668138,43.5597278 L339.95149,43.2183917 L340.234289,43.5597278 L340.517364,43.9013431 L340.800439,44.2426793 L340.517364,44.5840155 Z M347.74076,11.285458 C349.482613,11.3133678 351.334766,12.373938 351.639127,12.373938 C352.357597,12.373938 352.302308,11.3691872 353.021331,11.3691872 C353.878297,11.3691872 353.823009,12.3181185 353.823009,12.5413965 L353.823009,17.3142418 C353.823009,17.9561659 353.712433,18.6539095 352.910478,18.6539095 C352.247297,18.6539095 351.9985,18.1239035 351.915568,17.5654295 C351.611207,15.4998294 349.897274,13.3789679 347.74076,12.9045023 L347.74076,11.285458 Z M349.009899,3.66526059 L349.292975,3.32392442 L349.57605,2.98230916 L349.859125,3.32392442 L349.859125,4.00687586 L349.57605,4.34821203 L349.009899,4.34821203 L348.726824,4.00687586 L349.009899,3.66526059 Z M337.015689,26.9997603 L337.015689,32.5819882 L330.657276,32.5819882 L330.657276,30.962944 C332.896722,30.6838465 334.610655,29.1488106 335.357045,26.9160311 C335.550553,26.4971058 335.716418,26.0505499 336.214011,26.0505499 C337.098621,26.0505499 337.015689,26.8878422 337.015689,26.9997603 L337.015689,26.9997603 Z M334.289707,39.8039136 L334.006632,40.1452498 L333.723557,40.486865 L333.440481,40.1452498 L333.440481,39.4622983 L333.723557,39.1209621 L334.289707,39.1209621 L334.572782,39.4622983 L334.289707,39.8039136 Z M331.458954,41.1698165 C332.401064,40.9359328 332.895617,41.0249649 332.874331,42.1941041 C332.863826,42.7670911 330.564392,41.3916989 331.458954,41.1698165 L331.458954,41.1698165 Z M329.413016,32.2395357 L329.413016,32.5819882 L322.640771,32.5819882 L322.683343,32.6333421 L322.683343,33.3160145 L322.400268,33.6576298 L322.117193,33.3160145 L321.834117,32.9746783 L321.551042,32.6333421 L321.665212,32.495468 C321.389324,32.3949929 321.091874,32.1789715 321.091874,31.7165071 C321.091874,31.3260497 321.340671,31.0745829 321.700044,30.962944 C322.667586,30.6559368 322.639942,30.4887574 322.639942,29.4558178 L322.639942,18.701077 C322.030943,18.655305 321.817254,17.5489628 322.400268,17.2676326 C322.485412,17.2266052 322.56475,17.208743 322.639942,17.2020447 L322.639942,14.8302746 C322.639942,13.7976141 322.667586,13.6298765 321.700044,13.3231484 C321.340671,13.2112304 321.091874,12.9600427 321.091874,12.5693062 C321.091874,11.7599237 322.004128,11.7041042 322.114705,11.7041042 L329.413016,11.7041042 L329.413016,24.5157931 L329.477151,24.438204 L329.760502,24.0968678 L330.043578,24.438204 L330.043578,25.1211554 L329.760502,25.4627707 L329.413016,25.4627707 L329.413016,30.5228073 C329.542391,30.3626054 329.670106,30.2548738 329.760502,30.2431517 C331.560684,30.0084307 330.067075,31.8761508 329.413016,32.2395357 L329.413016,32.2395357 Z M320.135665,30.925824 C320.030894,30.9763406 319.933311,30.9981102 319.843468,30.997552 C319.543806,31.4022433 319.176969,31.76507 318.881454,31.9956045 C318.737705,32.1150582 318.592297,32.2172079 318.445783,32.3118219 C318.852151,32.5875702 318.93149,33.4190014 318.437214,33.6576298 C317.819369,33.9557058 317.442856,33.2657769 317.547074,32.7438647 C316.992534,32.9300227 316.404269,33.0006344 315.757397,33.0006344 C314.568426,33.0006344 313.490307,32.6936272 312.633341,31.828146 C311.665798,30.8233952 311.527578,29.5953665 311.527578,28.2833294 L311.527578,26.3854668 C311.527578,25.1016186 311.499934,23.5383938 309.841289,23.3712145 L309.841289,21.7242605 C311.334069,21.5847118 311.527578,20.6636902 311.527578,19.2961128 L311.527578,15.9184755 C311.527578,14.5229883 311.223493,13.8531545 309.841289,13.3507791 L309.841289,11.7041042 L309.97951,11.7041042 C311.776374,11.7041042 313.656171,11.6482847 315.314816,12.4576673 C317.167521,13.3789679 318.107143,14.9140038 318.135064,17.0351444 C318.190352,20.244765 316.089126,21.6405313 313.269154,22.3106442 L313.269154,22.3661846 C315.729477,22.7292904 318.079499,23.4546646 318.135064,26.4133766 L318.135064,28.8697132 C318.135064,29.1209009 318.052132,29.6790957 318.411505,29.6790957 C318.853533,29.6790957 318.936742,28.8697132 319.599923,28.8697132 C319.959573,28.8697132 320.401878,29.2883593 320.401878,29.6790957 C320.401878,29.7424509 320.394414,29.8072015 320.383909,29.8727894 C320.55392,30.2347787 320.506096,30.7472016 320.135665,30.925824 L320.135665,30.925824 Z M317.304912,41.1698165 C316.458451,41.5778569 316.060653,40.1310158 316.738762,39.8039136 C317.584947,39.395594 317.982745,40.8424352 317.304912,41.1698165 L317.304912,41.1698165 Z M309.122267,32.5819882 L301.298441,32.5819882 C301.188142,32.5819882 300.275611,32.5258896 300.275611,31.7165071 C300.275611,31.3260497 300.524684,31.0745829 300.88378,30.962944 C301.851323,30.6559368 301.823955,30.4887574 301.823955,29.4558178 L301.823955,14.8302746 C301.823955,13.7976141 301.851323,13.6298765 300.88378,13.3231484 C300.524684,13.2112304 300.275611,12.9600427 300.275611,12.5693062 C300.275611,11.7599237 301.188142,11.7041042 301.298441,11.7041042 L308.597306,11.7041042 L308.597306,24.2852586 C309.024407,24.5635187 309.683718,25.0572421 309.661603,25.1211554 C309.495738,25.598133 309.019984,25.6581389 308.597306,25.5060308 L308.597306,27.6980621 C308.650935,27.6207521 308.721151,27.5554433 308.812377,27.5113459 C309.658562,27.1030264 310.05636,28.5501466 309.378527,28.8772488 C309.022748,29.0488937 308.747966,28.8912037 308.597306,28.6280148 L308.597306,29.4558178 C308.597306,30.4887574 308.569385,30.6559368 309.536928,30.962944 C309.896577,31.0745829 310.145098,31.3260497 310.145098,31.7165071 C310.145098,32.5258896 309.232843,32.5819882 309.122267,32.5819882 L309.122267,32.5819882 Z M309.661603,36.0478202 L309.378527,36.3891564 L308.812377,36.3891564 L308.529302,36.0478202 L308.812377,35.706205 L309.095452,35.3648688 L309.378527,35.0235326 L309.661603,35.3648688 L309.661603,36.0478202 Z M308.812377,41.8524888 C308.687149,41.9183558 307.570329,39.3403327 308.246226,39.1209621 C309.454825,38.7288302 309.315223,41.5879044 308.812377,41.8524888 L308.812377,41.8524888 Z M306.547774,41.8524888 L305.981624,41.8524888 L305.698548,41.5111526 L305.698548,40.8282012 L305.981624,40.486865 L306.264699,40.8282012 L306.547774,41.1698165 L306.83085,41.5111526 L306.547774,41.8524888 Z M301.452142,6.34124685 C302.298604,5.9326482 302.696402,7.37976843 302.01857,7.70687063 C301.172108,8.11519019 300.77431,6.66806996 301.452142,6.34124685 L301.452142,6.34124685 Z M305.981624,4.29239254 C306.827809,3.88407299 307.225883,5.33119322 306.547774,5.65829542 C305.701589,6.06661497 305.303515,4.61949474 305.981624,4.29239254 L305.981624,4.29239254 Z M317.304912,4.29239254 C318.151097,3.88407299 318.548896,5.33119322 317.871063,5.65829542 C317.024602,6.06661497 316.626803,4.61949474 317.304912,4.29239254 L317.304912,4.29239254 Z M324.09872,4.29239254 C325.346573,3.98231529 324.25795,6.97144888 324.09872,7.02391919 C323.937002,7.0775059 322.822393,4.60972633 324.09872,4.29239254 L324.09872,4.29239254 Z M325.797172,6.34124685 C326.643633,5.9326482 327.041431,7.37976843 326.363322,7.70687063 C325.517137,8.11519019 325.119339,6.66806996 325.797172,6.34124685 L325.797172,6.34124685 Z M327.495623,9.07277351 C328.342085,8.66445395 328.739883,10.1115742 328.061774,10.4386764 C327.215589,10.8469959 326.817791,9.39987571 327.495623,9.07277351 L327.495623,9.07277351 Z M329.760502,20.6821106 C330.255331,20.4434823 330.594524,20.8395216 330.657276,21.2746345 L330.657276,21.0265169 C331.818603,20.7195097 332.343564,19.6307506 332.592361,18.5701803 C332.730581,18.0957147 332.896722,17.6494379 333.477248,17.6494379 C334.334214,17.6494379 334.195994,18.6539095 334.195994,18.8774666 L334.195994,23.4742014 C334.22502,23.4521527 334.255152,23.4306622 334.289707,23.4139164 C335.136169,23.0055968 335.533967,24.4527171 334.855858,24.7798193 C334.581076,24.9123905 334.354671,24.8476399 334.195994,24.6910663 L334.195994,24.9062504 C334.195994,25.1295284 334.334214,26.1342791 333.477248,26.1342791 C332.896722,26.1342791 332.730581,25.6877232 332.592361,25.2132576 C332.446124,24.5894748 332.202856,23.95704 331.792065,23.478667 C331.4725,23.510205 331.245265,23.2634829 331.157634,22.9584294 C331.005038,22.8747001 330.840003,22.8052049 330.657276,22.756921 L330.657276,21.5556856 C330.625762,21.7652878 330.522373,21.9536786 330.326653,22.0480135 C329.480191,22.4563331 329.082393,21.0094919 329.760502,20.6821106 L329.760502,20.6821106 Z M330.892803,6.34124685 C331.738989,5.9326482 332.136787,7.37976843 331.458954,7.70687063 C330.612493,8.11519019 330.214694,6.66806996 330.892803,6.34124685 L330.892803,6.34124685 Z M332.30818,4.63372871 L332.591255,4.29239254 L333.157406,4.29239254 L333.440481,4.63372871 L333.157406,4.97534398 L332.874331,5.31668015 L332.591255,5.65829542 L332.30818,5.31668015 L332.30818,4.63372871 Z M333.723557,7.70687063 C332.877095,8.11519019 332.479297,6.66806996 333.157406,6.34124685 C334.003591,5.9326482 334.401389,7.37976843 333.723557,7.70687063 L333.723557,7.70687063 Z M334.855858,4.97534398 L335.138933,4.63372871 L335.422008,4.29239254 L335.705084,4.63372871 L335.705084,5.31668015 L335.422008,5.65829542 L334.855858,5.65829542 L334.572782,5.31668015 L334.855858,4.97534398 Z M336.55431,18.6335354 C336.035707,18.8838858 335.687115,18.4373299 335.649796,17.9787728 C335.421455,17.8755068 335.319449,17.6466469 335.218824,17.3421516 C334.500079,15.0811832 333.089954,13.7136057 330.657276,13.3231484 L330.657276,11.7041042 L336.822181,11.7041042 L336.822181,17.3703404 C336.822181,17.4102513 336.81914,17.4828167 336.796195,17.5654295 C336.974499,17.9282562 336.929716,18.4524012 336.55431,18.6335354 L336.55431,18.6335354 Z M298.055239,30.2431517 L297.489088,30.2431517 L297.206013,29.9015364 L297.206013,29.218585 L297.489088,28.8772488 L297.772164,29.218585 L298.055239,29.5602002 L298.338314,29.9015364 L298.055239,30.2431517 Z M288.147603,22.3896288 L288.147603,21.7066773 L288.430402,21.3650621 L288.713477,21.7066773 L288.996829,22.0480135 L289.279904,22.3896288 L288.996829,22.730965 L288.430402,22.730965 L288.147603,22.3896288 Z M296.627422,32.5819882 L288.803597,32.5819882 C288.693297,32.5819882 287.780766,32.5258896 287.780766,31.7165071 C287.780766,31.3260497 288.029563,31.0745829 288.388936,30.962944 C289.356478,30.6559368 289.328834,30.4887574 289.328834,29.4558178 L289.328834,14.8302746 C289.328834,13.7976141 289.356478,13.6298765 288.388936,13.3231484 C288.029563,13.2112304 287.780766,12.9600427 287.780766,12.5693062 C287.780766,11.7599237 288.693297,11.7041042 288.803597,11.7041042 L296.627422,11.7041042 C296.737999,11.7041042 297.650253,11.7599237 297.650253,12.5693062 C297.650253,12.9600427 297.401733,13.2112304 297.042084,13.3231484 C296.074541,13.6298765 296.102185,13.7976141 296.102185,14.8302746 L296.102185,29.4558178 C296.102185,30.4887574 296.074541,30.6559368 297.042084,30.962944 C297.401733,31.0745829 297.650253,31.3260497 297.650253,31.7165071 C297.650253,32.5258896 296.737999,32.5819882 296.627422,32.5819882 L296.627422,32.5819882 Z M295.790636,40.486865 L295.507561,40.8282012 L295.224486,41.1698165 L294.94141,40.8282012 L294.94141,40.1452498 L295.224486,39.8039136 L295.790636,39.8039136 L296.073712,40.1452498 L295.790636,40.486865 Z M291.058524,43.5722872 C290.613178,44.6322993 288.427914,43.6130355 289.643147,42.5477205 C290.06002,42.1826611 291.466274,42.6015863 291.058524,43.5722872 L291.058524,43.5722872 Z M288.713477,41.5111526 L288.430402,41.8524888 L287.864528,41.8524888 L287.581453,41.5111526 L287.864528,41.1698165 L288.147603,40.8282012 L288.430402,40.486865 L288.713477,40.8282012 L288.713477,41.5111526 Z M287.864528,4.97534398 L288.147603,4.63372871 L288.430402,4.29239254 L288.713477,4.63372871 L288.713477,5.31668015 L288.430402,5.65829542 L287.864528,5.65829542 L287.581453,5.31668015 L287.864528,4.97534398 Z M292.110657,4.63372871 L292.393733,4.29239254 L292.959883,4.29239254 L293.242959,4.63372871 L292.959883,4.97534398 L292.676808,5.31668015 L292.393733,5.65829542 L292.110657,5.31668015 L292.110657,4.63372871 Z M284.772538,1.70515927 C285.131911,1.50309272 286.754065,1.66385285 286.754065,2.04677454 C286.754065,2.82154903 283.655441,2.33340761 284.772538,1.70515927 L284.772538,1.70515927 Z M284.796589,32.5821172 L277.912938,32.5821172 C277.35978,32.5821172 276.558102,32.5258896 276.558102,31.8005154 C276.558102,31.3536804 276.723967,31.2141317 277.083339,31.0187635 C277.802085,30.6001173 277.912938,30.4047491 277.663865,29.31599 L277.110984,27.1669397 L275.125863,27.1669397 L275.125863,27.1700097 L274.842787,27.5113459 L274.559712,27.1700097 L274.556948,27.1669397 L273.074949,27.1669397 L273.46169,25.5481745 L276.834543,25.5481745 L276.671719,24.8286613 C276.20951,24.6877171 276.038394,23.902616 276.379521,23.5375566 L274.042491,13.2112304 L274.401588,11.7041042 L280.511481,11.7041042 L284.658368,29.3441788 C284.824233,30.1256516 284.851877,30.6559368 285.625911,30.9908537 C286.012928,31.1583122 286.317013,31.3536804 286.317013,31.8560558 C286.317013,32.6096189 285.32155,32.5821172 284.796589,32.5821172 L284.796589,32.5821172 Z M271.830689,32.5821087 L268.651344,32.5821087 C268.098463,32.5821087 267.103276,32.5540785 267.103276,31.7446959 C267.103276,31.0745829 267.573226,31.1024927 268.181395,30.7954855 C268.761921,30.4887574 269.508311,29.8465542 270.033824,27.8646833 L273.35139,15.6117474 L273.434045,15.6117474 L274.152791,18.7658276 L273.069144,22.7460362 C273.09347,22.7401752 273.118074,22.7345932 273.144336,22.730965 C273.207088,22.7223129 274.287694,23.7276219 273.71021,24.0968678 C273.222845,24.4086197 272.879229,24.3745698 272.677151,24.1867372 L271.75688,27.5668863 C271.894823,28.2356038 271.77706,29.1423914 271.374009,29.5468035 C271.396677,30.2936683 271.782036,30.6146304 272.438859,30.9074036 C272.881164,31.1024927 273.268181,31.2699511 273.268181,31.828146 C273.268181,32.6096189 272.383571,32.5821087 271.830689,32.5821087 L271.830689,32.5821087 Z M271.760197,43.5597278 L271.477122,43.9013431 L271.194046,43.5597278 L270.910971,43.2183917 L270.628172,42.8770555 L270.910971,42.5354402 L271.477122,42.5354402 L271.760197,42.8770555 L271.760197,43.5597278 Z M269.747155,40.486865 C268.90097,40.8949055 268.503172,39.4480644 269.181005,39.1209621 C270.027466,38.7126426 270.425265,40.1594837 269.747155,40.486865 L269.747155,40.486865 Z M266.350252,41.1698165 L266.067176,41.5111526 L265.784101,41.8524888 L265.501026,41.5111526 L265.501026,40.8282012 L265.784101,40.486865 L266.350252,40.486865 L266.633327,40.8282012 L266.350252,41.1698165 Z M265.784101,45.267246 C264.937916,45.6752864 264.540118,44.2281662 265.217951,43.901064 C266.064136,43.4930236 266.46221,44.9398647 265.784101,45.267246 L265.784101,45.267246 Z M264.091455,23.5383938 L264.036166,23.5383938 L262.488098,20.7195097 L262.488098,16.7560469 C262.488098,12.7649535 260.221008,13.8252447 260.221008,12.5413965 C260.221008,11.7599237 261.133262,11.7041042 261.409703,11.7041042 L265.169573,11.7041042 C265.446014,11.7041042 266.358545,11.7599237 266.358545,12.5413965 C266.358545,13.8252447 264.091455,12.7649535 264.091455,16.7560469 L264.091455,23.5383938 Z M264.091455,32.5819882 L259.972211,32.5819882 L249.853928,14.9698233 C249.411623,14.1880714 249.273402,13.7694252 248.360871,13.4626971 C247.890922,13.2949596 247.531549,13.1835997 247.531549,12.5693062 C247.531549,11.7320139 248.360871,11.7320139 248.941673,11.7041042 L256.046477,11.7041042 L264.091455,25.827272 L264.091455,32.5819882 Z M252.06573,32.5819882 L248.913753,32.5819882 C248.609945,32.5819882 247.476261,32.6378077 247.476261,31.7723265 C247.476261,30.5722075 249.245482,31.6609667 249.688063,28.1719696 L249.688063,22.4370753 L249.648532,22.3896288 L249.648532,21.7066773 L249.688063,21.6589517 L249.688063,16.9516943 L249.743352,16.9516943 L251.29142,19.7426687 L251.29142,28.1719696 C251.733725,31.6609667 253.503222,30.5722075 253.503222,31.7723265 C253.503222,32.6378077 252.369538,32.5819882 252.06573,32.5819882 L252.06573,32.5819882 Z M251.063909,35.706205 C250.217724,36.1145245 249.819649,34.6676834 250.497758,34.3405812 C251.343943,33.9322616 251.741742,35.3793819 251.063909,35.706205 L251.063909,35.706205 Z M247.100855,43.9013431 L246.534704,43.9013431 L246.251352,43.5597278 L246.251352,42.8767764 L246.534704,42.5354402 L246.817779,42.8767764 L247.100855,43.2183917 L247.38393,43.5597278 L247.100855,43.9013431 Z M245.901655,22.1429066 C245.901655,27.6975039 243.164615,32.4700701 237.303795,33.0006344 L237.303795,31.3818692 C238.603067,30.9074036 238.713643,30.0698322 238.713643,29.3720886 L238.713643,14.9140038 C238.713643,14.2162602 238.603067,13.3789679 237.303795,12.9045023 L237.303795,11.285458 C242.258719,11.7336885 244.980278,15.2145918 245.703447,19.6360534 L245.968277,19.3164869 L246.534704,19.3164869 L246.817779,19.657823 L246.817779,20.3407745 L246.534704,20.6821106 L246.251352,20.3407745 L245.968277,19.9994383 L245.711464,19.6890819 C245.837797,20.4814396 245.901655,21.3031024 245.901655,22.1429066 L245.901655,22.1429066 Z M243.703951,38.4380107 L243.420599,38.7793469 L243.137524,39.1209621 L242.854449,38.7793469 L242.854449,38.0963954 L243.137524,37.7550593 L243.703951,37.7550593 L243.98675,38.0963954 L243.703951,38.4380107 Z M235.211415,25.4627707 C235.786412,25.1987445 236.635638,26.3810013 236.626792,26.4870583 C236.531696,27.614612 234.33731,25.8638337 235.211415,25.4627707 L235.211415,25.4627707 Z M236.059536,33.0006344 C230.198716,32.4700701 227.461953,27.6975039 227.461953,22.1429066 C227.461953,16.5885885 230.198716,11.8157432 236.059536,11.285458 L236.059536,12.9045023 C234.760264,13.3789679 234.649964,14.2162602 234.649964,14.9140038 L234.649964,22.0535955 L234.92834,22.3896288 L235.211415,22.730965 L235.494491,23.0725802 L235.211415,23.4139164 L234.649964,23.4139164 L234.649964,29.3720886 C234.649964,30.0698322 234.760264,30.9074036 236.059536,31.3818692 L236.059536,33.0006344 Z M255.528427,5.58628828 C256.374612,5.17796872 256.77241,6.62480985 256.094577,6.95191205 C255.248116,7.36023161 254.850318,5.91339048 255.528427,5.58628828 L255.528427,5.58628828 Z M224.062837,14.8302746 L224.062837,27.039113 L224.171202,27.1700097 L224.171202,27.8529612 L224.062837,27.9835788 L224.062837,29.4558178 C224.062837,30.4887574 224.034917,30.6559368 225.002459,30.962944 C225.362109,31.0745829 225.610629,31.3260497 225.610629,31.7165071 C225.610629,32.5258896 224.698651,32.5819882 224.587798,32.5819882 L216.763973,32.5819882 C216.653673,32.5819882 215.741142,32.5258896 215.741142,31.7165071 C215.741142,31.3260497 215.990215,31.0745829 216.349312,30.962944 C217.316854,30.6559368 217.289487,30.4887574 217.289487,29.4558178 L217.289487,14.8302746 C217.289487,13.7976141 217.316854,13.6298765 216.349312,13.3231484 C215.990215,13.2112304 215.741142,12.9600427 215.741142,12.5693062 C215.741142,11.7599237 216.653673,11.7041042 216.763973,11.7041042 L224.587798,11.7041042 C224.698651,11.7041042 225.610629,11.7599237 225.610629,12.5693062 C225.610629,12.9600427 225.362109,13.2112304 225.002459,13.3231484 C224.034917,13.6298765 224.062837,13.7976141 224.062837,14.8302746 L224.062837,14.8302746 Z M223.605051,40.8282012 L223.321976,41.1698165 L222.755826,41.1698165 L222.47275,40.8282012 L222.755826,40.486865 L223.038901,40.1452498 L223.321976,39.8039136 L223.605051,40.1452498 L223.605051,40.8282012 Z M218.792771,40.486865 C218.120467,44.0238669 217.388452,38.8789847 218.226344,38.4380107 C218.325863,38.3858195 218.932374,39.7522806 218.792771,40.486865 L218.792771,40.486865 Z M217.66047,4.29239254 C218.278039,3.93821789 218.585994,8.45429358 217.094043,7.70687063 C216.960799,7.64016634 217.469173,4.40207784 217.66047,4.29239254 L217.66047,4.29239254 Z M214.498541,32.5819882 L208.884859,32.5819882 L208.884859,32.6333421 L208.601784,32.9746783 L208.035633,32.9746783 L207.752558,32.6333421 L208.035633,32.2917269 L208.318709,31.9503907 L208.601784,31.6087754 L208.665365,31.6855272 L208.665365,30.962944 C210.904535,30.6559368 212.176162,28.7022547 212.756688,26.1063694 C212.894908,25.492355 213.226914,25.3248966 213.807163,25.3248966 C214.443253,25.3248966 214.498541,25.8551817 214.498541,26.3854668 L214.498541,32.5819882 Z M207.421382,14.8302746 L207.421382,32.5819882 L200.122517,32.5819882 C200.012218,32.5819882 199.099687,32.5258896 199.099687,31.7165071 C199.099687,31.3260497 199.348483,31.0745829 199.707856,30.962944 C200.675399,30.6559368 200.648031,30.4887574 200.648031,29.4558178 L200.648031,14.8302746 C200.648031,13.7976141 200.675399,13.6298765 199.707856,13.3231484 C199.348483,13.2112304 199.099687,12.9600427 199.099687,12.5693062 C199.099687,11.7599237 200.012218,11.7041042 200.122517,11.7041042 L207.946343,11.7041042 C208.056919,11.7041042 208.969174,11.7599237 208.969174,12.5693062 C208.969174,12.9600427 208.720653,13.2112304 208.361004,13.3231484 C207.393461,13.6298765 207.421382,13.7976141 207.421382,14.8302746 L207.421382,14.8302746 Z M205.771031,35.0235326 L205.204604,35.0235326 L204.921805,34.6819174 L204.921805,33.9989659 L205.204604,33.6576298 L205.487679,33.9989659 L205.771031,34.3405812 L206.054106,34.6819174 L205.771031,35.0235326 Z M205.771031,39.1209621 C204.313359,40.0528685 204.136713,37.9015854 205.204604,37.7550593 C205.267632,37.7464073 206.348239,38.7517162 205.771031,39.1209621 L205.771031,39.1209621 Z M204.355654,41.5111526 L204.072303,41.8524888 L203.506152,41.8524888 L203.223077,41.5111526 L203.506152,41.1698165 L203.789227,40.8282012 L204.072303,40.486865 L204.355654,40.8282012 L204.355654,41.5111526 Z M198.693872,21.7066773 L198.693872,21.0237259 L198.976947,20.6821106 L199.260022,21.0237259 L199.543098,21.3650621 L199.826173,21.7066773 L199.543098,22.0480135 L198.976947,22.0480135 L198.693872,21.7066773 Z M197.995583,32.5819882 L192.16213,32.5819882 L192.16213,30.962944 C194.401577,30.6559368 195.672928,28.7022547 196.253729,26.1063694 C196.39195,25.492355 196.723679,25.3248966 197.304204,25.3248966 C197.940294,25.3248966 197.995583,25.8551817 197.995583,26.3854668 L197.995583,32.5819882 Z M190.918147,14.8302746 L190.918147,32.5819882 L183.619559,32.5819882 C183.509259,32.5819882 182.596728,32.5258896 182.596728,31.7165071 C182.596728,31.3260497 182.845525,31.0745829 183.204898,30.962944 C184.17244,30.6559368 184.144796,30.4887574 184.144796,29.4558178 L184.144796,14.8302746 C184.144796,13.7976141 184.17244,13.6298765 183.204898,13.3231484 C182.845525,13.2112304 182.596728,12.9600427 182.596728,12.5693062 C182.596728,11.7599237 183.509259,11.7041042 183.619559,11.7041042 L191.443384,11.7041042 C191.553961,11.7041042 192.466215,11.7599237 192.466215,12.5693062 C192.466215,12.9600427 192.217418,13.2112304 191.858045,13.3231484 C190.890503,13.6298765 190.918147,13.7976141 190.918147,14.8302746 L190.918147,14.8302746 Z M184.25012,0.755390679 C185.449873,0.202498649 185.790448,3.75038531 184.816547,3.48719643 C184.702377,3.45649571 183.563441,1.07188718 184.25012,0.755390679 L184.25012,0.755390679 Z M188.78596,4.29239254 L189.35211,4.29239254 L189.635462,4.63372871 L189.635462,5.31668015 L189.35211,5.65829542 L189.069035,5.31668015 L188.78596,4.97534398 L188.502884,4.63372871 L188.78596,4.29239254 Z M190.767487,8.73143734 L191.050839,8.38982207 L191.616989,8.38982207 L191.900064,8.73143734 L191.616989,9.07277351 L191.333914,9.41410967 L191.050839,9.75572494 L190.767487,9.41410967 L190.767487,8.73143734 Z M194.730818,4.63372871 L195.013893,4.29239254 L195.580043,4.29239254 L195.863119,4.63372871 L195.580043,4.97534398 L195.296968,5.31668015 L195.013893,5.65829542 L194.730818,5.31668015 L194.730818,4.63372871 Z M202.090775,7.36553446 L202.373851,7.02391919 L202.656926,7.36553446 L202.940278,7.70687063 L203.223077,8.0484859 L202.940278,8.38982207 L202.373851,8.38982207 L202.090775,8.0484859 L202.090775,7.36553446 Z M210.866386,4.29239254 C213.581311,2.30298599 212.368842,6.65551057 210.866386,5.65829542 C210.39699,5.34654358 210.395884,4.63707788 210.866386,4.29239254 L210.866386,4.29239254 Z M180.859851,11.8043002 L180.576776,12.1459154 L180.293701,12.4872516 L180.235095,12.416919 C180.243112,12.4646447 180.247811,12.5151613 180.247811,12.5693062 C180.247811,12.9600427 179.999015,13.2112304 179.639365,13.3231484 C178.671823,13.6298765 178.699743,13.7976141 178.699743,14.8302746 L178.699743,29.4558178 C178.699743,30.4887574 178.671823,30.6559368 179.639365,30.962944 C179.999015,31.0745829 180.247811,31.3260497 180.247811,31.7165071 C180.247811,32.5258896 179.335557,32.5819882 179.224704,32.5819882 L171.401155,32.5819882 C171.290579,32.5819882 170.378325,32.5258896 170.378325,31.7165071 C170.378325,31.3260497 170.627121,31.0745829 170.986494,30.962944 C171.954037,30.6559368 171.926393,30.4887574 171.926393,29.4558178 L171.926393,14.8302746 C171.926393,13.7976141 171.954037,13.6298765 170.986494,13.3231484 C170.627121,13.2112304 170.378325,12.9600427 170.378325,12.5693062 C170.378325,11.7599237 171.290579,11.7041042 171.401155,11.7041042 L179.224704,11.7041042 C179.299067,11.7041042 179.732249,11.7303393 180.010625,11.9904581 L180.010625,11.462964 L180.293701,11.1213487 L180.859851,11.1213487 L181.142926,11.462964 L180.859851,11.8043002 Z M179.72755,17.2676326 L179.444475,16.9262964 L179.72755,16.5846811 L180.010625,16.2433449 L180.293701,15.9020088 L180.576776,16.2433449 L180.576776,16.9262964 L180.293701,17.2676326 L179.72755,17.2676326 Z M180.859851,37.7550593 L180.293701,37.7550593 L180.010625,37.4137231 L180.010625,36.7307717 L180.293701,36.3891564 L180.576776,36.7307717 L180.859851,37.0721078 L181.142926,37.4137231 L180.859851,37.7550593 Z M180.293424,40.486865 L180.010625,40.8282012 L179.72755,41.1695374 L179.444475,40.8282012 L179.444475,40.1452498 L179.72755,39.8039136 L180.293424,39.8039136 L180.576776,40.1452498 L180.293424,40.486865 Z M165.209989,31.6609667 C163.440768,32.6654383 161.699191,32.5819882 159.736186,32.5819882 L158.851576,32.5819882 L158.851576,30.962944 C160.703728,30.8792147 160.924881,29.8186445 160.924881,28.8138937 L160.924881,25.2132576 C160.924881,23.9294094 160.621073,22.7292904 158.851576,22.5897416 L158.851576,20.9706974 C160.869869,20.8032389 160.924881,19.6031199 160.924881,18.5701803 L160.924881,15.7789268 C160.924881,14.6067176 160.51022,13.4903278 158.851576,13.3231484 L158.851576,11.7041042 L159.708818,11.7041042 C161.450395,11.7041042 163.219615,11.7320139 164.823248,12.5134868 C166.537181,13.3789679 167.532644,14.8302746 167.532644,16.8118664 C167.532644,19.8822174 164.988836,21.3056143 162.307361,21.7242605 L162.307361,21.78008 C165.37613,22.2824554 167.809084,23.6503119 167.809084,27.139309 C167.809084,29.1209009 166.951842,30.6838465 165.209989,31.6609667 L165.209989,31.6609667 Z M162.176605,41.1698165 L161.893529,41.5111526 L161.610178,41.8524888 L161.327102,41.5111526 L161.327102,40.8282012 L161.610178,40.486865 L162.176605,40.486865 L162.45968,40.8282012 L162.176605,41.1698165 Z M157.930199,29.218585 L157.647123,29.5602002 L157.607592,29.5124746 L157.607592,32.5819882 L150.170784,32.5819882 C149.977552,32.5819882 149.286173,32.5258896 149.286173,31.7165071 C149.286173,31.3260497 149.53497,31.0745829 149.894343,30.962944 C150.862162,30.6559368 150.834242,30.4887574 150.834242,29.4558178 L150.834242,14.8302746 C150.834242,13.7976141 150.862162,13.6298765 149.894343,13.3231484 C149.53497,13.2112304 149.286173,12.9600427 149.286173,12.5693062 C149.286173,11.7599237 149.977552,11.7041042 150.170784,11.7041042 L153.932313,11.7041042 C153.832518,11.0261765 153.976267,10.1763248 154.25022,9.75572494 C154.858942,8.82130671 154.952932,10.5729222 154.761359,11.7041042 L157.607592,11.7041042 L157.607592,28.1942974 L157.647123,28.1942974 L157.930199,28.5359126 L157.930199,29.218585 Z M155.948671,40.486865 L155.665596,40.8282012 L155.382521,41.1698165 L155.099446,40.8282012 L155.099446,40.1452498 L155.382521,39.8039136 L155.948671,39.8039136 L156.231747,40.1452498 L155.948671,40.486865 Z M153.400994,41.5111526 L153.117918,41.8524888 L152.551768,41.8524888 L152.268692,41.5111526 L152.551768,41.1698165 L152.834843,40.8282012 L153.117918,40.486865 L153.400994,40.8282012 L153.400994,41.5111526 Z M148.022286,21.3650621 L147.739211,21.7066773 L147.456412,22.0480135 L147.173061,21.7066773 L147.173061,21.0237259 L147.456412,20.6821106 L148.022286,20.6821106 L148.305362,21.0237259 L148.022286,21.3650621 Z M148.305362,35.3648688 L148.022286,35.706205 L147.456412,35.706205 L147.173061,35.3648688 L147.456412,35.0235326 L147.739211,34.6819174 L148.022286,34.3405812 L148.305362,34.6819174 L148.305362,35.3648688 Z M149.720738,8.38982207 L150.003814,8.0484859 L150.287165,7.70687063 L150.570241,8.0484859 L150.570241,8.73143734 L150.287165,9.07277351 L149.720738,9.07277351 L149.437939,8.73143734 L149.720738,8.38982207 Z M153.133676,4.59381778 C153.508253,4.85142472 153.553036,6.04819454 153.416751,6.30105682 C151.873382,9.15817732 151.775246,3.65912045 153.133676,4.59381778 L153.133676,4.59381778 Z M145.757684,41.8524888 C144.300289,42.7843952 144.123366,40.6331121 145.191533,40.486865 C145.254562,40.478213 146.335169,41.4832429 145.757684,41.8524888 L145.757684,41.8524888 Z M143.776157,5.31668015 L143.493082,5.65829542 L143.210006,5.31668015 L142.926931,4.97534398 L142.643856,4.63372871 L142.926931,4.29239254 L143.493082,4.29239254 L143.776157,4.63372871 L143.776157,5.31668015 Z M143.493082,22.0480135 L143.210006,22.3896288 L142.926931,22.730965 L142.643856,22.3896288 L142.643856,21.7066773 L142.926931,21.3650621 L143.493082,21.3650621 L143.776157,21.7066773 L143.493082,22.0480135 Z M139.794028,2.11766529 C140.598747,2.23181614 140.606764,2.00770089 140.643254,3.14195289 C140.79115,7.74761886 137.532743,1.79670323 139.794028,2.11766529 L139.794028,2.11766529 Z M138.056875,31.2451115 C137.802273,31.5479322 137.523897,31.8133539 137.290028,31.9956045 C136.35013,32.7773564 135.354667,33.0006344 134.165971,33.0006344 C133.11522,33.0006344 132.151548,32.758936 131.34987,32.105848 C131.431143,32.4399276 131.348488,32.824803 131.037492,32.9746783 C130.191307,33.3829979 129.793508,31.9358776 130.471341,31.6087754 C130.588552,31.5523978 130.696364,31.5339773 130.794777,31.5409548 C130.052257,30.5931399 129.936428,29.4731218 129.936428,28.2833294 L129.936428,26.3854668 C129.936428,25.1016186 129.908508,23.5383938 128.249863,23.3712145 L128.249863,21.7242605 C129.742643,21.5847118 129.936428,20.6636902 129.936428,19.2961128 L129.936428,17.1035233 C129.472284,17.4588143 128.709584,17.5578939 128.489814,16.9262964 C128.457747,16.8344733 129.831934,15.8559577 129.905191,15.9020088 C129.916525,15.9089862 129.925647,15.9165218 129.936428,15.9237784 L129.936428,15.9184755 C129.936428,14.5229883 129.632067,13.8531545 128.249863,13.3507791 L128.249863,11.7041042 L128.388084,11.7041042 C130.184949,11.7041042 132.065022,11.6482847 133.723666,12.4576673 C134.101837,12.6457789 134.440201,12.8609631 134.74235,13.1001496 C135.02045,13.1104762 135.217552,13.3401734 135.299931,13.6173171 C136.109073,14.4978696 136.525393,15.6385408 136.543638,17.0351444 C136.598926,20.244765 134.497977,21.6405313 131.677728,22.3106442 L131.677728,22.3661846 C134.138327,22.7292904 136.48835,23.4546646 136.543638,26.4133766 L136.543638,28.8697132 C136.543638,29.1209009 136.460706,29.6790957 136.820079,29.6790957 C137.262384,29.6790957 137.345316,28.8697132 138.008774,28.8697132 C138.368423,28.8697132 138.810452,29.2883593 138.810452,29.6790957 C138.810452,29.8468333 138.769815,30.0240602 138.702364,30.2037989 C139.212673,30.1890068 139.676541,30.2453844 139.813103,30.5844878 C139.919809,30.8501886 138.846389,31.3305153 138.056875,31.2451115 L138.056875,31.2451115 Z M134.884164,43.8304524 C134.336812,43.5360046 135.302143,42.7472752 135.450039,42.7182491 C138.027296,42.2102917 136.649515,44.780221 134.884164,43.8304524 L134.884164,43.8304524 Z M134.434672,37.7550593 C133.58821,38.1633788 133.190412,36.7165377 133.868245,36.3891564 C134.714706,35.9808368 135.112505,37.4279571 134.434672,37.7550593 L134.434672,37.7550593 Z M131.603642,37.7550593 C130.757457,38.1633788 130.359659,36.7165377 131.037492,36.3891564 C131.883953,35.9808368 132.281751,37.4279571 131.603642,37.7550593 L131.603642,37.7550593 Z M131.037492,41.1698165 C130.191307,41.5778569 129.793508,40.1310158 130.471341,39.8039136 C131.317803,39.395594 131.715601,40.8424352 131.037492,41.1698165 L131.037492,41.1698165 Z M127.530841,32.5819882 L126.18264,32.5819882 L126.225212,32.6333421 L126.508287,32.9746783 L126.791362,33.3160145 L126.508287,33.6576298 L125.942136,33.6576298 L125.659061,33.3160145 L125.659061,32.6333421 L125.701633,32.5819882 L119.707292,32.5819882 C119.596716,32.5819882 118.684185,32.5258896 118.684185,31.7165071 C118.684185,31.3260497 118.933258,31.0745829 119.292631,30.962944 C120.260174,30.6559368 120.23253,30.4887574 120.23253,29.4558178 L120.23253,14.8302746 C120.23253,14.6993779 120.233082,14.5824361 120.2317,14.4772163 L119.997278,14.1944906 L119.71448,13.8531545 L119.431128,13.5115392 L119.52263,13.4012957 C119.452414,13.3758978 119.377498,13.3499418 119.292631,13.3231484 C118.933258,13.2112304 118.684185,12.9600427 118.684185,12.5693062 C118.684185,11.7599237 119.596716,11.7041042 119.707292,11.7041042 L127.00588,11.7041042 L127.00588,20.0820511 L127.074437,19.9994383 L127.357513,19.657823 L127.640588,19.3164869 L127.923663,19.657823 L127.923663,20.3407745 L127.640588,20.6821106 L127.074437,20.6821106 L127.00588,20.5994978 L127.00588,24.6969273 L127.074437,24.7798193 L127.357513,25.1211554 L127.074437,25.4627707 L127.00588,25.4627707 L127.00588,29.4558178 C127.00588,30.3224153 126.988741,30.5794641 127.553786,30.8211625 L127.357513,30.5844878 L127.640588,30.2431517 L127.923663,29.9015364 L128.206739,29.5602002 L128.489814,29.9015364 L128.489814,30.5844878 L128.206739,30.925824 L127.83382,30.925824 C127.87031,30.9381043 127.905695,30.9501055 127.945502,30.962944 C128.305152,31.0745829 128.553948,31.3260497 128.553948,31.7165071 C128.553948,32.5258896 127.641694,32.5819882 127.530841,32.5819882 L127.530841,32.5819882 Z M128.489814,41.5111526 L128.206739,41.8524888 L127.923663,41.5111526 L127.640588,41.1698165 L127.357513,40.8282012 L127.640588,40.486865 L128.206739,40.486865 L128.489814,40.8282012 L128.489814,41.5111526 Z M117.166525,18.9748716 L116.88345,19.3164869 L116.600375,18.9748716 L116.317299,18.6335354 L116.284679,18.5941827 C116.559185,19.7133634 116.695194,20.9084587 116.695194,22.1429066 C116.695194,27.6975039 113.958431,32.4700701 108.097611,33.0006344 L108.097611,31.3818692 C109.396882,30.9074036 109.507182,30.0698322 109.507182,29.3720886 L109.507182,27.4918091 L109.24014,27.1700097 L108.957065,26.8283945 L108.674266,26.4870583 L108.957065,26.1457221 L109.507182,26.1457221 L109.507182,21.3455253 L109.24014,21.0237259 L109.24014,20.3407745 L109.507182,20.0189751 L109.507182,14.9140038 C109.507182,14.2162602 109.396882,13.3789679 108.097611,12.9045023 L108.097611,11.285458 C108.286973,11.302483 108.473017,11.3245317 108.656298,11.3504877 C108.556779,11.0071979 108.6328,10.59525 108.957065,10.4386764 C109.668071,10.0956656 110.059787,11.0596682 109.765931,11.5715329 C113.154265,12.442596 115.252173,14.9421927 116.163322,18.1361838 L116.317299,17.950584 L116.88345,17.950584 L117.166525,18.2921993 L117.166525,18.9748716 Z M112.354245,41.1698165 L112.07117,41.5111526 L111.788095,41.8524888 L111.505019,41.5111526 L111.505019,40.8282012 L111.788095,40.486865 L112.354245,40.486865 L112.637321,40.8282012 L112.354245,41.1698165 Z M106.975814,23.0725802 L106.692739,23.4139164 L106.409664,23.7555317 L106.126312,24.0968678 L105.843237,23.7555317 L105.843237,23.0725802 L106.126312,22.730965 L106.692739,22.730965 L106.975814,23.0725802 Z M106.853351,31.5791911 L106.853351,33.0006344 C105.194707,32.85048 103.786518,32.3601057 102.619661,31.6087754 L102.163258,31.6087754 L101.880183,31.2674393 L101.978043,31.149102 C99.4599439,29.1624864 98.2554917,25.8253183 98.2554917,22.1429066 C98.2554917,18.7493609 99.2794281,15.6494256 101.411063,13.6287601 L101.314032,13.5115392 L101.030957,13.170203 L100.747881,12.8288669 L101.030957,12.4872516 L101.597107,12.4872516 L101.880183,12.8288669 L101.880183,13.2134631 C103.175307,12.1593121 104.827594,11.468825 106.853351,11.285458 L106.853351,12.9045023 C105.553803,13.3789679 105.443503,14.2162602 105.443503,14.9140038 L105.443503,17.2243725 C105.955748,17.397692 106.101985,18.3720211 105.560161,18.6335354 C105.519801,18.6530722 105.481652,18.6645152 105.443503,18.6759582 L105.443503,29.3720886 C105.443503,29.8579972 105.498239,30.4117265 105.9704,30.8635853 C106.458041,30.9004261 106.938771,31.0226708 106.975814,31.2674393 C106.994612,31.392754 106.946235,31.4954619 106.853351,31.5791911 L106.853351,31.5791911 Z M97.0676259,17.3703404 C97.0676259,17.4590934 97.0554625,17.7052573 96.8340335,17.873274 C96.8741174,18.1783275 96.7792982,18.4995687 96.5017517,18.6335354 C95.877825,18.9346816 95.4991012,18.2277278 95.6141005,17.704141 C95.5566009,17.6014331 95.5098824,17.4803048 95.4642697,17.3421516 C95.1916991,16.4844851 94.8187806,15.7557617 94.3289276,15.1598887 C94.3001778,15.1813792 94.270875,15.2025906 94.2368728,15.2190573 C93.6018885,15.5255063 93.219571,14.7872936 93.354474,14.2611949 C92.9945482,14.0105654 92.5953678,13.8018005 92.1491925,13.639924 L91.9725468,13.8531545 L91.6891951,14.1944906 L91.4061198,14.5361059 L91.1230445,14.1944906 L91.1230445,13.5115392 L91.228092,13.3851081 C91.1211094,13.3630594 91.0141268,13.3410107 90.9027212,13.3231484 L90.9027212,11.7041042 L97.0676259,11.7041042 L97.0676259,17.3703404 Z M93.7226931,26.1342791 C93.1421676,26.1342791 92.9760267,25.6877232 92.8378063,25.2132576 C92.5892861,24.1524082 92.0640487,23.0639282 90.9027212,22.756921 L90.9027212,21.0265169 C92.0640487,20.7195097 92.5892861,19.6307506 92.8378063,18.5701803 C92.9760267,18.0957147 93.1421676,17.6494379 93.7226931,17.6494379 C94.5796593,17.6494379 94.441439,18.6539095 94.441439,18.8774666 L94.441439,24.9062504 C94.441439,25.1295284 94.5796593,26.1342791 93.7226931,26.1342791 L93.7226931,26.1342791 Z M91.9725468,32.9746783 L91.4061198,32.9746783 L91.1230445,32.6333421 L91.1230445,32.0938468 C90.8955338,32.5445892 90.274095,32.5819882 90.1839753,32.5819882 L84.8508808,32.5819882 C85.0333317,32.9448149 84.9904834,33.4751 84.6123125,33.6576298 C83.9278452,33.987802 83.5372345,33.1047377 83.7713798,32.5819882 L82.3601499,32.5819882 C82.24985,32.5819882 81.3373192,32.5258896 81.3373192,31.7165071 C81.3373192,31.3260497 81.5861158,31.0745829 81.9454888,30.962944 C82.9130313,30.6559368 82.8853873,30.4887574 82.8853873,29.4558178 L82.8853873,19.8453765 C82.7062537,19.7984881 82.4358946,19.5478586 82.0646347,18.9748716 C81.7525332,18.4942658 81.1507217,18.1434403 81.7815594,17.950584 C82.2725182,17.8004296 82.6504126,18.1046458 82.8853873,18.5110117 L82.8853873,14.8302746 C82.8853873,13.7976141 82.9130313,13.6298765 81.9454888,13.3231484 C81.5861158,13.2112304 81.3373192,12.9600427 81.3373192,12.5693062 C81.3373192,11.7599237 82.24985,11.7041042 82.3601499,11.7041042 L88.858442,11.7041042 L88.858442,11.462964 L89.1415174,11.1213487 L89.707668,11.1213487 L89.9907433,11.462964 L89.707668,11.8043002 L89.658738,11.8634688 L89.658738,16.5846811 L89.707668,16.5846811 L89.9907433,16.9262964 L89.707668,17.2676326 L89.658738,17.3268012 L89.658738,23.3991242 C90.1148652,23.6316124 90.2248886,24.5303062 89.707668,24.7798193 C89.6908051,24.7879131 89.6753244,24.7907041 89.658738,24.7974024 L89.658738,29.4558178 C89.658738,30.4887574 89.6310939,30.6559368 90.5986364,30.962944 C90.9582858,31.0745829 91.206806,31.3260497 91.206806,31.7165071 C91.206806,31.7684192 91.2026594,31.8169821 91.1957484,31.8627541 L91.4061198,31.6087754 L91.6891951,31.9503907 L91.9725468,32.2917269 L92.2553457,32.6333421 L91.9725468,32.9746783 Z M88.0092161,39.8039136 L87.7261408,40.1452498 L87.4430655,40.486865 L87.1599902,40.1452498 L87.1599902,39.4622983 L87.4430655,39.1209621 L88.0092161,39.1209621 L88.2922914,39.4622983 L88.0092161,39.8039136 Z M86.5938396,36.0478202 L86.3107643,36.3891564 L86.027689,36.0478202 L86.027689,35.3648688 L86.3107643,35.0235326 L86.8769149,35.0235326 L87.1599902,35.3648688 L86.8769149,35.706205 L86.5938396,36.0478202 Z M80.0828312,9.07277351 C80.442757,8.87042786 82.0646347,9.03118799 82.0646347,9.41410967 C82.0646347,10.1888842 78.9660106,9.70102184 80.0828312,9.07277351 L80.0828312,9.07277351 Z M80.0828312,41.8524888 C79.2366461,42.2608084 78.8388479,40.8136881 79.5166806,40.486865 C80.3631421,40.0782664 80.7609403,41.5253866 80.0828312,41.8524888 L80.0828312,41.8524888 Z M79.5166806,4.29239254 C79.7090833,4.42077737 80.2365322,6.66779086 80.0828312,7.02391919 C79.1028488,9.29605146 78.5336573,3.63511807 79.5166806,4.29239254 L79.5166806,4.29239254 Z M81.2151324,4.97534398 L81.4982077,4.63372871 L81.7815594,4.29239254 L82.0646347,4.63372871 L82.0646347,5.31668015 L81.7815594,5.65829542 L81.2151324,5.65829542 L80.9323335,5.31668015 L81.2151324,4.97534398 Z M87.1641368,3.09366904 C89.2252789,2.8251773 86.9686932,5.31221459 86.5979862,5.14224425 C85.8065364,4.77969667 86.794812,3.1416738 87.1641368,3.09366904 L87.1641368,3.09366904 Z M88.858442,2.73195875 L89.1415174,2.39034349 L89.4245927,2.73195875 L89.707668,3.07329492 L89.9910197,3.41491019 L89.707668,3.75624636 L89.1415174,3.75624636 L88.858442,3.41491019 L88.858442,2.73195875 Z M112.354245,11.0493416 L112.637321,10.7080054 L112.920396,10.3663901 L113.203471,10.7080054 L113.203471,11.3909568 L112.920396,11.732293 L112.354245,11.732293 L112.07117,11.3909568 L112.354245,11.0493416 Z M73.5720992,42.8767764 L73.2890239,43.2183917 L72.7228732,43.2183917 L72.4397979,42.8767764 L72.7228732,42.5354402 L73.0059485,42.1941041 L73.2890239,41.8524888 L73.5720992,42.1941041 L73.5720992,42.8767764 Z M71.8736473,38.0963954 L71.590572,38.4380107 L71.3074967,38.0963954 L71.3074967,37.4137231 L71.590572,37.0721078 L72.1567226,37.0721078 L72.4397979,37.4137231 L72.1567226,37.7550593 L71.8736473,38.0963954 Z M71.3074967,41.5111526 L71.0244214,41.8524888 L70.7413461,41.5111526 L70.4582708,41.1698165 L70.1751955,40.8282012 L70.4582708,40.486865 L71.0244214,40.486865 L71.3074967,40.8282012 L71.3074967,41.5111526 Z M69.8390436,22.1429066 C70.1431284,28.7022547 65.4710036,32.5819882 60.8818111,32.5819882 L60.8818111,30.962944 C62.5680996,30.739666 62.6510318,29.1488106 62.6510318,28.0882403 L62.6510318,27.3676107 L62.5318858,27.5113459 L62.2488105,27.1700097 L61.9657352,26.8283945 L61.6826599,26.4870583 L61.9657352,26.1457221 L62.5318858,26.1457221 L62.6510318,26.2891782 L62.6510318,16.1978521 C62.6510318,15.1372818 62.5680996,13.5461473 60.8818111,13.3231484 L60.8818111,11.7041042 C61.3257749,11.6988013 61.7625513,11.723641 62.1904815,11.7786232 C62.1830176,11.5067823 62.2855771,11.2402442 62.5318858,11.1213487 C63.1472429,10.8246681 63.5232023,11.5078987 63.4231307,12.0289736 C63.9925986,12.1900128 64.5388455,12.4132908 65.0563426,12.6960165 C64.96567,12.3569131 65.044732,11.9578037 65.3626389,11.8043002 C66.2091004,11.3959806 66.6068986,12.8431008 65.9290659,13.170203 C65.9022512,13.1830415 65.8779244,13.1889026 65.8522154,13.1981128 C67.5722296,14.4345144 68.8800707,16.4549008 69.4868581,19.3164869 L69.8921202,19.3164869 L70.1751955,19.657823 L69.8921202,19.9994383 L69.6610157,20.2779775 C69.748371,20.8679895 69.8089115,21.4889813 69.8390436,22.1429066 L69.8390436,22.1429066 Z M69.6090449,38.7793469 L69.3259696,39.1209621 L68.759819,39.1209621 L68.4767437,38.7793469 L68.759819,38.4380107 L69.0428943,38.0963954 L69.3259696,37.7550593 L69.6090449,38.0963954 L69.6090449,38.7793469 Z M66.7780154,44.2426793 L66.4949401,44.5840155 L66.2121412,44.2426793 L65.9290659,43.9013431 L65.6459906,43.5597278 L65.9290659,43.2183917 L66.4949401,43.2183917 L66.7780154,43.5597278 L66.7780154,44.2426793 Z M60.2672834,15.9020088 L59.9842081,16.2433449 L59.7011328,16.5846811 L59.6378279,16.5082084 L59.6378279,32.5819882 L56.0518387,32.5819882 C55.9506614,33.1633482 55.3701359,32.9953315 54.8896819,32.5819882 L52.6156805,32.5819882 C52.0075109,32.5819882 51.3164091,32.5258896 51.3164091,31.7165071 C51.3164091,31.3260497 51.5652057,31.0745829 51.9243022,30.962944 C52.8921212,30.6559368 52.8644772,30.4887574 52.8644772,29.4558178 L52.8644772,14.8302746 C52.8644772,14.4116284 52.9197653,13.6580654 52.3945279,13.4903278 C51.8416465,13.2949596 51.3164091,13.2112304 51.3164091,12.5134868 C51.3164091,11.7878334 52.0075109,11.7041042 52.5603924,11.7041042 L59.6378279,11.7041042 L59.6378279,15.29553 L59.7011328,15.2190573 L60.2672834,15.2190573 L60.5503587,15.5603935 L60.2672834,15.9020088 Z M56.5873044,40.8282012 L56.3042291,41.1698165 L56.0211538,40.8282012 L55.7380785,40.486865 L55.4550032,40.1452498 L55.7380785,39.8039136 L56.3042291,39.8039136 L56.5873044,40.1452498 L56.5873044,40.8282012 Z M54.322702,9.41410967 L54.6057773,9.07277351 L55.1719279,9.07277351 L55.4550032,9.41410967 L55.1719279,9.75572494 L54.8888526,10.0970611 L54.6057773,10.4386764 L54.322702,10.0970611 L54.322702,9.41410967 Z M64.2306141,9.07277351 C65.0767992,8.66445395 65.4745974,10.1115742 64.7964883,10.4386764 C63.9503032,10.8469959 63.552505,9.39987571 64.2306141,9.07277351 L64.2306141,9.07277351 Z M70.1751955,4.63372871 L70.4582708,4.29239254 L71.0244214,4.29239254 L71.3074967,4.63372871 L71.0244214,4.97534398 L70.7413461,5.31668015 L70.4582708,5.65829542 L70.1751955,5.31668015 L70.1751955,4.63372871 Z M49.2270701,8.0484859 C49.2027433,7.98206071 50.0168612,7.0339667 50.076296,7.02391919 C52.2021252,6.66165072 49.8916336,9.8587119 49.2270701,8.0484859 L49.2270701,8.0484859 Z M48.8574688,32.5819882 L43.1926454,32.5819882 C43.2786185,32.9085322 43.393065,33.2685679 43.565564,33.6576298 C43.4898192,33.586739 42.4797048,33.5571547 42.140512,32.5819882 L41.9735418,32.5819882 C41.4203839,32.5819882 40.6189823,32.5258896 40.6189823,31.8005154 C40.6189823,31.3536804 40.7848467,31.2141317 41.1439432,31.0187635 C41.8629655,30.6001173 41.9735418,30.4047491 41.7247452,29.31599 L41.1718637,27.1669397 L37.9825671,27.1669397 C38.4110502,27.6419635 39.0595801,28.4566489 39.0360827,28.5359126 C38.6888731,29.7075637 37.0808174,28.0028365 37.3152391,27.1669397 L37.1352762,27.1669397 L37.5225697,25.5481745 L40.895423,25.5481745 L39.0142438,17.2372109 C38.8796172,17.5129592 38.4989583,17.8252692 38.0566532,18.076736 L38.2136715,18.7658276 L37.117584,22.7909709 C37.4764041,23.1007691 37.5264399,23.8691243 37.0545555,24.0968678 C36.9423206,24.1510127 36.8383789,24.1708286 36.7432833,24.1663631 L35.6148522,28.3115183 C35.1728235,30.0140127 35.5595641,30.4887574 36.499739,30.9074036 C36.9420442,31.1024927 37.3290612,31.2699511 37.3290612,31.828146 C37.3290612,32.6096189 36.4441744,32.5819882 35.891293,32.5819882 L32.712501,32.5819882 C32.3260369,32.5819882 31.7256076,32.5674751 31.3977489,32.2836331 C31.3960903,32.286424 31.3947081,32.2889359 31.3930494,32.2917269 C30.1714579,32.5697079 30.6143159,30.9339178 30.5438235,30.925824 C30.5745084,30.9674095 31.2288436,30.8440485 31.5354164,31.1010972 C31.7228432,31.0042504 31.9683226,30.9339178 32.2425518,30.7954855 C32.8228009,30.4887574 33.5691908,29.8465542 34.0947047,27.8646833 L36.6166734,18.5495271 C36.4013261,18.5425497 36.2470722,18.466077 36.2053296,18.2921993 C36.1129984,17.904812 36.5179841,17.503749 36.9854453,17.1872525 L37.4119934,15.6117474 L37.4949256,15.6117474 L37.7547799,16.7524187 C37.9828435,16.6452453 38.1545132,16.5821692 38.1871332,16.5846811 C38.5415302,16.6125909 38.7726347,16.6804115 38.9094728,16.7744674 L38.1030952,13.2112304 L38.4624682,11.7041042 L38.6700751,11.7041042 L38.4702085,11.462964 L38.4702085,10.7800125 L38.7530074,10.4386764 L39.0360827,10.7800125 L39.3194344,11.1213487 L39.6025097,11.462964 L39.4026431,11.7041042 L43.19928,11.7041042 L42.9994134,11.462964 L43.2824887,11.1213487 L43.565564,10.7800125 L43.8486393,10.4386764 L44.1317146,10.7800125 L44.1317146,11.462964 L43.9318479,11.7041042 L44.5723611,11.7041042 L47.6461056,24.7798193 L47.8116935,24.7798193 L48.0947689,25.1211554 L48.0947689,25.8041069 L47.9327746,25.9994751 L48.3079047,27.5956333 L48.3778442,27.5113459 L48.9439948,27.5113459 L49.2270701,27.8529612 L49.2270701,28.5359126 L48.9439948,28.8772488 L48.6609195,28.5359126 L48.4768099,28.3137511 L48.7192485,29.3441788 C48.8848365,30.1256516 48.912757,30.6559368 49.686791,30.9908537 C50.073808,31.1583122 50.3778928,31.3536804 50.3778928,31.8560558 C50.3778928,32.6096189 49.3824298,32.5819882 48.8574688,32.5819882 L48.8574688,32.5819882 Z M46.9624676,44.2426793 C46.9304005,44.1508562 48.3048638,43.1723406 48.3778442,43.2183917 C49.6931491,44.0447992 47.3740879,45.4260524 46.9624676,44.2426793 L46.9624676,44.2426793 Z M46.1132417,43.9013431 C45.7618856,43.8642232 44.7611701,42.2722514 45.5470911,41.8524888 C46.7562429,41.2066573 47.1921899,44.0152149 46.1132417,43.9013431 L46.1132417,43.9013431 Z M44.4147899,43.9013431 L44.1317146,44.2426793 L43.8486393,44.5840155 L43.565564,44.2426793 L43.565564,43.5597278 L43.8486393,43.2183917 L44.4147899,43.2183917 L44.6978652,43.5597278 L44.4147899,43.9013431 Z M39.6025097,42.8767764 C38.5241144,43.6897873 38.34194,41.1698165 39.3194344,41.1698165 C39.521789,41.1698165 40.5647999,42.1514022 39.6025097,42.8767764 L39.6025097,42.8767764 Z M37.9040579,40.8282012 L37.6207061,41.1698165 L37.3376308,40.8282012 L37.0545555,40.486865 L36.7714802,40.1452498 L37.0545555,39.8039136 L37.6207061,39.8039136 L37.9040579,40.1452498 L37.9040579,40.8282012 Z M37.3376308,43.5597278 L37.0545555,43.9013431 L36.4886814,43.9013431 L36.2053296,43.5597278 L36.4886814,43.2183917 L36.7714802,42.8767764 L37.0545555,42.5354402 L37.3376308,42.8767764 L37.3376308,43.5597278 Z M35.639179,36.7307717 L35.9222543,36.3891564 L36.4886814,36.3891564 L36.7714802,36.7307717 L36.7714802,37.4137231 L36.4886814,37.7550593 L36.2053296,37.4137231 L35.9222543,37.0721078 L35.639179,36.7307717 Z M34.2238025,39.1209621 C34.5569136,38.9267103 35.639179,39.0941688 35.639179,39.4622983 C35.639179,40.2426548 33.2136881,39.7092996 34.2238025,39.1209621 L34.2238025,39.1209621 Z M27.4609565,31.6609667 C25.6914594,32.6654383 23.9501593,32.5819882 21.9871537,32.5819882 L21.1025434,32.5819882 L21.1025434,30.962944 C22.9546962,30.8792147 23.1758488,29.8186445 23.1758488,28.8138937 L23.1758488,25.2132576 C23.1758488,23.9294094 22.871764,22.7292904 21.1025434,22.5897416 L21.1025434,20.9706974 C23.1208371,20.8032389 23.1758488,19.6031199 23.1758488,18.5701803 L23.1758488,15.7789268 C23.1758488,14.6067176 22.7611877,13.4903278 21.1025434,13.3231484 L21.1025434,11.7041042 L21.9595096,11.7041042 C23.7010862,11.7041042 25.4705833,11.7320139 27.0739395,12.5134868 C28.7881485,13.3789679 29.7833351,14.8302746 29.7833351,16.8118664 C29.7833351,19.8822174 27.239804,21.3056143 24.5583289,21.7242605 L24.5583289,21.78008 C26.8815368,22.1604898 28.8379078,23.0388094 29.6525786,24.9562088 C30.9258646,24.3488928 31.7001751,24.8836435 29.9356539,25.8741603 C30.0155453,26.2618267 30.0597758,26.6813101 30.0597758,27.139309 C30.0597758,29.1209009 29.2028096,30.6838465 27.4609565,31.6609667 L27.4609565,31.6609667 Z M24.8823174,4.63372871 L25.1653927,4.29239254 L25.448468,4.63372871 L25.7312669,4.97534398 L26.0143422,5.31668015 L25.7312669,5.65829542 L25.1653927,5.65829542 L24.8823174,5.31668015 L24.8823174,4.63372871 Z M29.4115223,7.36553446 L29.6945976,7.02391919 L29.9776729,7.36553446 L30.2607482,7.70687063 L30.5438235,8.0484859 L30.2607482,8.38982207 L29.6945976,8.38982207 L29.4115223,8.0484859 L29.4115223,7.36553446 Z M33.0915013,8.38982207 C33.8146702,9.00495283 33.393651,11.3923523 32.5253507,9.75572494 C32.1670835,9.08030914 33.0259848,8.33428168 33.0915013,8.38982207 L33.0915013,8.38982207 Z M41.0178862,4.29239254 C41.8162471,3.10539113 41.8162471,8.21119971 41.0178862,7.02391919 C40.5556773,6.33706039 40.5556773,4.97925134 41.0178862,4.29239254 L41.0178862,4.29239254 Z M47.5286182,4.63372871 L47.8116935,4.29239254 L48.3778442,4.29239254 L48.6609195,4.63372871 L48.3778442,4.97534398 L48.0947689,5.31668015 L47.8116935,5.65829542 L47.5286182,5.31668015 L47.5286182,4.63372871 Z M49.5104218,4.97534398 L49.7932207,4.63372871 L50.076296,4.29239254 L50.3593713,4.63372871 L50.3593713,5.31668015 L50.076296,5.65829542 L49.5104218,5.65829542 L49.2270701,5.31668015 L49.5104218,4.97534398 Z M11.860577,18.2921993 L12.1436523,17.950584 L12.7098029,17.950584 L12.9928782,18.2921993 L12.9928782,18.9748716 L12.7098029,19.3164869 L12.4267276,18.9748716 L12.1436523,18.6335354 L11.860577,18.2921993 Z M19.8585601,32.5819882 L12.4217517,32.5819882 C12.2282431,32.5819882 11.5371413,32.5258896 11.5371413,31.7165071 C11.5371413,31.3260497 11.785938,31.0745829 12.1453109,30.962944 C13.1128535,30.6559368 13.0852094,30.4887574 13.0852094,29.4558178 L13.0852094,14.8302746 C13.0852094,13.7976141 13.1128535,13.6298765 12.1453109,13.3231484 C11.785938,13.2112304 11.5371413,12.9600427 11.5371413,12.5693062 C11.5371413,11.7599237 12.2282431,11.7041042 12.4217517,11.7041042 L19.8585601,11.7041042 L19.8585601,32.5819882 Z M17.8051584,40.486865 C16.9589733,40.8949055 16.5611751,39.4480644 17.2390078,39.1209621 C18.0851928,38.7126426 18.4832675,40.1594837 17.8051584,40.486865 L17.8051584,40.486865 Z M13.2759535,43.2183917 L12.9928782,43.5597278 L12.7098029,43.9013431 L12.4267276,43.5597278 L12.4267276,42.8767764 L12.7098029,42.5354402 L13.2759535,42.5354402 L13.5590288,42.8767764 L13.2759535,43.2183917 Z M10.5839737,44.3819489 C9.38449738,44.9348409 9.04364596,41.3872334 10.0178231,41.6501432 C10.1317167,41.6808439 11.2709289,44.0654524 10.5839737,44.3819489 L10.5839737,44.3819489 Z M9.02954749,12.1459154 L8.74647218,12.4872516 L8.46339688,12.1459154 L8.18032157,11.8043002 L7.89724627,11.462964 L8.18032157,11.1213487 L8.74647218,11.1213487 L9.02954749,11.462964 L9.02954749,12.1459154 Z M7.33109566,8.0484859 L7.33109566,7.36553446 L7.61417096,7.02391919 L7.89724627,7.36553446 L8.18032157,7.70687063 L8.46339688,8.0484859 L8.18032157,8.38982207 L7.61417096,8.38982207 L7.33109566,8.0484859 Z M4.78341792,5.37780249 C4.42515073,4.70266578 5.28405207,3.95635922 5.34956853,4.01189962 C6.07273747,4.62703037 5.65171824,7.01442988 4.78341792,5.37780249 L4.78341792,5.37780249 Z M2.71398263,41.4168177 C2.68965585,41.3506716 3.50349735,40.4025776 3.56320855,40.3925301 C5.68903774,40.0299825 3.3782697,43.2270437 2.71398263,41.4168177 L2.71398263,41.4168177 Z M3.21157594,44.0322398 C2.23463441,43.4720912 3.2425373,42.3297454 3.49465125,42.3250008 C5.11901696,42.294021 4.1324,44.5602922 3.21157594,44.0322398 L3.21157594,44.0322398 Z M2.71342975,4.15675119 C2.28218222,4.15675119 2.28218222,2.10789688 2.71342975,2.10789688 C3.14440085,2.10789688 3.14440085,4.15675119 2.71342975,4.15675119 L2.71342975,4.15675119 Z M2.67306941,5.90194748 L2.3899941,6.24328365 L2.1069188,6.58489892 L1.82384349,6.24328365 L1.82384349,5.56061131 L2.1069188,5.21899605 L2.67306941,5.21899605 L2.95614471,5.56061131 L2.67306941,5.90194748 Z M364.862393,4.29239254 C365.708578,3.88407299 366.106653,5.33119322 365.428544,5.65829542 C364.582358,6.06661497 364.18456,4.61949474 364.862393,4.29239254 L364.862393,4.29239254 Z M373.921079,4.29239254 C374.767264,3.88407299 375.165062,5.33119322 374.48723,5.65829542 C373.640768,6.06661497 373.24297,4.61949474 373.921079,4.29239254 L373.921079,4.29239254 Z M375.05338,8.38982207 C374.207195,8.79814162 373.809121,7.35102139 374.48723,7.02391919 C375.333415,6.61559964 375.731213,8.06271987 375.05338,8.38982207 L375.05338,8.38982207 Z M380.662363,22.3402285 C380.407761,19.6522411 380.735619,16.5774246 380.46609,14.8177152 C380.411078,14.960334 380.308795,15.0987663 380.148736,15.2190573 C379.643402,15.5986299 378.352148,14.1275073 379.016435,13.8531545 C379.53172,13.6404822 379.97679,13.7451438 380.245214,13.9851676 C380.137678,13.74012 379.997523,13.559544 379.813137,13.462139 C378.229408,13.3513373 375.434316,13.636854 372.59444,14.0270322 C373.253751,14.9100965 371.964985,17.7460056 370.807251,15.5603935 C370.77546,15.5003876 371.180999,14.6700727 371.444723,14.1900251 C367.360311,14.7861772 363.509492,15.5182498 363.394493,15.5109933 C363.152331,15.495922 372.08026,8.67924611 372.169827,8.68175799 C372.35836,8.68706084 372.547445,8.6803625 372.735978,8.68175799 C372.794307,8.68231619 372.560991,10.056592 373.019053,10.0476609 C374.245897,10.0420789 375.477717,10.0557547 376.699032,10.0476609 C377.990839,10.0390088 378.325609,10.3161526 379.530061,9.36470943 C380.066356,8.94103951 379.930901,8.92596825 380.096212,8.68175799 C380.905631,7.48666275 381.073154,7.13109261 380.096212,5.95023134 C379.468139,5.1910863 379.870084,5.5617277 378.963911,5.2672799 C377.60244,3.91449461 377.28868,5.43976212 376.982107,1.16985038 C370.278143,1.62338372 363.339757,-0.257453933 357.16656,3.21842559 C355.821675,2.31945274 354.351287,1.79586594 352.79769,1.51955947 C352.912966,2.24605011 351.728141,3.54022494 350.476417,2.71884117 C349.942058,2.36801569 350.831367,1.4397376 351.042845,1.3529383 C351.077952,1.33842523 351.10919,1.32809863 351.143193,1.31498105 C350.278209,1.25190503 349.39277,1.24883495 348.493508,1.28651311 C348.877484,1.77577092 348.67126,4.80509454 348.199099,4.74564679 C347.833644,4.69959571 347.657551,1.9529978 348.199099,1.3311687 C348.210986,1.31749292 348.222043,1.3088409 348.233377,1.29767701 C344.116346,1.5053255 339.72232,2.52458935 335.65256,2.53575325 C335.511299,2.53603235 334.442579,2.14724962 333.223475,1.70822934 C332.682204,2.02751681 331.262405,1.38001075 330.83171,0.86982063 C330.157748,0.646542677 329.62477,0.491085403 329.424627,0.486898941 C328.480582,0.466803926 318.817873,2.60301574 318.101338,3.90137703 C317.757446,3.58599692 317.403602,3.32866908 317.042017,3.11739232 C316.963232,3.3376002 316.844086,3.55445891 316.820588,3.69372853 C316.344004,6.54052243 315.277773,3.51371068 315.837012,2.58347891 C313.459622,1.83354409 310.849192,2.58292072 308.476501,2.53575325 C308.049677,2.52710123 308.337452,1.1787815 307.910627,1.16985038 C307.658513,1.16454753 307.408611,1.16119836 307.158985,1.15812829 C307.533286,1.45759984 307.593273,2.24605011 307.113925,2.47742189 C306.297319,2.87122838 305.90118,1.54077088 306.48364,1.15282543 C297.109812,1.10984443 289.462908,2.55333639 287.528652,2.53575325 C287.397343,2.53435777 286.304573,1.24213662 285.370756,0.711851478 C284.97904,0.855865758 284.276604,0.724689961 284.051857,0.487457136 C282.77636,0.486898941 281.288832,0.474339556 279.73413,0.459547392 C281.012115,1.43527204 276.978016,2.36075916 276.936826,1.32642404 C276.932126,1.2108777 278.163393,0.708502309 278.917247,0.451732664 C275.225658,0.416008191 271.320656,0.379725524 269.127652,0.473781362 L269.313696,0.698175704 L269.313696,1.38084804 L269.030621,1.72246331 L268.46447,1.72246331 L268.181395,1.38084804 L268.46447,1.03951187 L268.747546,0.698175704 L268.92585,0.483270675 C268.899588,0.484387064 268.871115,0.485503454 268.845406,0.486898941 C268.718796,0.49359728 266.70686,1.8430334 266.580803,1.85280182 C266.324819,1.87233864 263.726276,0.732225592 261.485171,1.16985038 C260.415899,1.37861526 255.077828,3.66302781 254.712927,4.48022512 C254.706845,4.50701848 254.70021,4.53269544 254.693299,4.5586515 C254.693023,4.56702442 254.689982,4.57651374 254.691088,4.58432847 C254.690535,4.5809793 254.689705,4.57818832 254.689153,4.57511825 C254.62723,4.80230357 254.536557,4.98008864 254.417688,5.06298058 C254.203999,5.21201861 253.48166,3.9158901 253.505433,3.02947662 C253.162094,3.2178674 252.699332,3.5114779 251.99275,3.44170354 C252.08978,3.78387701 252.01293,4.19247566 251.690324,4.34821203 C250.93177,4.71410878 250.536184,3.59185797 250.950015,3.1190669 C250.269971,2.78191719 249.433462,2.14669142 248.392386,1.03448812 L248.380775,1.04844299 L247.814625,1.04844299 L247.531549,0.707106822 L247.531549,0.510901321 C233.313926,1.52821149 219.093815,0.597979723 204.869005,0.486898941 C204.635689,0.484945259 201.00851,1.85280182 200.3398,1.85280182 C199.995355,1.85252272 199.005697,0.484387064 193.545716,0.486898941 C192.825864,0.487178039 187.461532,1.85391821 186.751909,1.85280182 C186.625299,1.85252272 184.61364,0.487457136 184.48703,0.486898941 C175.849639,0.446429812 167.155855,1.3311687 158.496349,0.906940589 L158.496349,1.03839548 L158.213274,1.37973165 L157.930199,1.03839548 L157.790596,0.86982063 C156.308597,0.78469591 154.827704,0.663846719 153.348194,0.486898941 C162.046677,3.78890076 152.18963,2.6836749 150.51744,5.95023134 C147.037328,1.06100238 146.266888,4.65103275 145.988236,4.58432847 C144.229243,4.16317043 144.667402,2.6395775 144.289784,2.53575325 C144.055638,2.47128174 142.336454,4.97087842 140.892604,1.16985038 C132.642507,4.64349712 136.771149,2.39815821 135.231098,1.85280182 C134.992529,1.76823529 134.705307,1.68980891 134.381595,1.61612719 C135.317071,2.31331259 133.244595,4.8854746 132.429094,2.52486845 C132.405873,2.45816416 133.218886,1.51174474 133.27832,1.50058085 C133.391661,1.47936944 133.493944,1.46736825 133.590975,1.45955352 C125.209845,0.0113169026 98.466416,0.963318272 88.858442,1.14947627 L88.858442,1.81233269 L88.5753667,2.15394795 L88.2922914,1.81233269 L88.0092161,1.47099652 L87.7584844,1.16845489 C87.7308403,1.16901309 87.7007083,1.16957128 87.6736171,1.16985038 C87.1185241,1.17738601 86.7345479,3.19665599 86.5410394,3.21842559 C84.763802,0.599933405 71.051789,0.990390724 66.1593411,1.16985038 C65.9533927,1.17738601 62.4384489,2.52040289 62.1960103,2.53575325 C62.0246171,2.54635896 61.1203795,1.85112723 59.9842081,1.34679816 L59.9842081,1.69455357 L59.7011328,2.03588974 L59.4180575,1.69455357 L59.1349822,1.3529383 L58.8519069,1.01160213 L58.8911615,0.964155565 C58.4864522,0.864796876 58.0734498,0.817071213 57.669017,0.850283809 C57.923066,1.20585395 57.9153257,1.83410229 57.4967944,2.03588974 C56.8971945,2.32531378 56.5251053,1.68394786 56.5989149,1.16873399 C55.8715994,1.57789084 55.2402088,2.40960121 54.8360524,3.90137703 C51.1212419,-0.484081054 46.4662565,2.7272141 41.814312,2.53575325 C41.3841702,2.51789102 41.6777503,1.18352615 41.2481614,1.16985038 C37.6787587,1.05597862 34.0485391,1.61138253 30.4592327,1.11626367 C30.0006175,1.22343709 29.2522924,1.31414376 28.1097629,1.37387061 C27.8222646,1.17710691 27.7125176,0.834096157 27.7772047,0.521227926 C27.7382266,0.508947639 27.6992484,0.499458326 27.6602703,0.486898941 C23.8846428,3.15618686 14.6307895,0.596863333 6.11613866,1.24436939 C6.38705058,1.45732074 6.68837097,1.71632317 7.02673442,2.03644793 C7.11768342,2.12268904 10.351487,2.99514764 7.02673442,2.70153713 C5.84716184,2.59743379 4.99683016,1.96220801 4.5946089,1.39564021 C3.28427985,1.56114499 2.00048912,1.81568186 0.767563473,2.19413799 L0.767563473,3.35378785 C1.41001172,3.34764771 1.64747431,4.50199472 1.05063878,4.79030238 C0.949461471,4.83886533 0.854918743,4.86007674 0.767563473,4.86063493 L0.767563473,13.7191877 C1.01083131,13.7755654 1.96123453,14.7175192 1.02797064,15.4211239 C0.934257231,15.4917355 0.847731284,15.5358329 0.767563473,15.5598353 L0.767563473,18.5841352 L1.89986469,18.2425199 C1.81333874,24.2528833 1.8116801,30.2861327 1.92197995,36.3168702 C2.12516388,36.0768464 2.33360019,35.8488238 2.36262647,35.8438 C4.14207543,35.5404211 2.81350129,37.7293823 1.94326589,37.3897207 C1.99938335,40.114549 2.07623388,42.8385401 2.18294,45.5589028 C2.85662605,45.5664384 3.53058854,45.5683921 4.20455103,45.5720204 C4.21339714,44.9499122 4.68915163,44.2786829 5.57707924,44.1098289 C6.67067876,43.9016222 6.90565338,45.4441938 6.99245577,45.4754527 C7.10413782,45.5162009 9.16362124,45.0403398 8.53499503,45.5776023 C15.2008103,45.5558327 21.8693899,45.4380536 28.5094962,45.5589028 C32.6898329,45.6350964 36.8184751,45.6484931 40.9650861,45.5589028 C41.1536186,45.5549954 41.3427041,45.565043 41.5312367,45.5589028 C41.9143835,45.5471807 44.5552218,46.8586596 49.1745463,46.2421333 C50.0580509,45.4603814 49.9541092,44.892139 50.0237722,44.8762305 C50.3668352,44.7978041 50.843419,44.975031 51.1560735,44.8762305 C51.3324427,44.820411 51.5541481,44.9437721 51.7222241,44.8762305 C53.240713,44.2644489 52.7339971,44.2585878 52.8545253,44.193279 C54.0451555,43.5485639 51.8546392,43.2432313 53.9868265,42.8273762 C54.3083271,43.608849 54.4617517,44.3657613 55.1191277,44.8762305 C56.0504565,45.5993719 55.8541836,45.3629764 56.8175796,45.5589028 C57.0003069,45.5963019 57.1982384,45.530714 57.3837302,45.5589028 C58.0684739,45.6635644 60.8182298,45.596581 61.912935,45.5589028 C62.8835184,45.5259693 63.3390928,45.599651 64.1778139,44.8762305 C64.2336549,44.8968837 63.9831996,46.1411001 64.4608892,46.2421333 C66.1231273,46.5932379 68.1497143,45.5963019 70.4054706,45.5589028 C70.7800478,45.5527627 71.164024,45.5759278 71.5377718,45.5589028 C73.5303566,45.4687543 75.2871374,45.0863908 77.1995544,44.8762305 C77.5688792,44.8354822 77.9628072,44.9189324 78.3318556,44.8762305 C79.136851,44.7827328 79.9639616,45.7835763 81.7287593,44.8762305 L82.2949099,44.8762305 L85.69209,45.5589028 L86.8241147,45.5589028 C87.8657434,45.963315 91.6491112,45.8128815 92.4858973,45.5589028 C92.860198,45.5482971 93.2447271,45.5820679 93.6181985,45.5589028 C95.5676585,45.4380536 97.3576122,45.3211118 99.2797046,44.8762305 C99.7872498,44.8201319 99.8544249,45.533784 100.412282,45.5589028 C100.534469,45.5644848 100.66412,45.5642057 100.789347,45.5675548 C100.345384,45.3236237 100.24393,44.4400012 100.755622,44.193279 C101.601807,43.7849595 101.999605,45.2320797 101.321772,45.5591819 C101.303527,45.5678339 101.286664,45.5711831 101.268972,45.5781605 C102.29125,45.5859753 103.37241,45.5457852 104.375337,45.5589028 C104.749914,45.5639266 105.132784,45.5552745 105.507638,45.5589028 C108.068032,45.585138 110.947438,45.5661593 113.434023,44.8762305 C113.931063,44.8502744 114.000726,45.4573113 114.566047,45.5589028 C115.101237,45.6554705 115.714659,45.550809 116.264776,45.5589028 C116.453308,45.5619729 116.642117,45.5547163 116.830926,45.5589028 C119.402378,45.6189088 122.192494,45.6521214 124.757035,45.5589028 C124.945567,45.5522045 125.134653,45.5672757 125.323185,45.5589028 C126.940917,45.4880121 127.698917,45.4093066 129.28624,44.8762305 C129.647824,44.8279466 130.112521,44.9739146 130.418541,44.8762305 C130.590487,44.8212483 130.801964,44.9066521 130.984968,44.8762305 C131.484773,44.8438552 131.551395,45.4721035 132.117269,45.5589028 C132.821087,45.6674717 133.655938,45.5728577 134.381872,45.5589028 C134.570404,45.5555536 134.75949,45.559461 134.948022,45.5589028 C136.810956,45.5552745 138.76401,45.5943482 140.609528,45.5589028 C141.264416,45.5463434 141.789377,45.7495264 141.74183,44.8762305 C145.712071,46.3520977 149.709128,45.5312722 154.197419,45.5589028 C154.386228,45.5602983 154.575037,45.5580655 154.76357,45.5589028 C161.556272,45.6002092 168.363901,45.1288137 175.145545,45.5589028 L175.145545,44.193279 C172.865462,34.8758901 175.08611,42.7140626 175.42862,42.8273762 C176.342257,43.1301969 177.408212,40.7422392 177.693223,40.7785218 C177.946442,40.8108972 179.446686,44.7082138 181.656277,41.4617524 C183.157074,42.5466041 181.553994,43.2013667 181.939629,44.193279 C182.078955,44.5524774 181.618128,45.608024 182.505503,45.5589028 C185.701158,44.3769252 186.30214,45.4709871 190.431888,45.5589028 C190.62042,45.5630893 190.809229,45.5544373 190.998038,45.5589028 C194.056302,45.6328636 211.736069,45.868701 212.79539,45.5589028 C215.525795,44.7606841 215.439822,42.0562299 215.626143,42.1447038 C216.313651,42.4701314 215.492898,44.9183742 216.192293,45.5589028 C217.83131,47.0607261 220.157836,42.1491694 219.589197,45.5589028 C222.144615,45.218683 224.673218,45.4955477 227.232507,45.5589028 C227.421039,45.5639266 227.609848,45.5552745 227.798657,45.5589028 C229.944943,45.6038375 231.981206,44.9708445 234.026314,44.8762305 C234.214847,44.8675785 234.404208,44.886278 234.592465,44.8762305 C235.834236,44.8086889 242.034249,45.9535466 242.801925,45.5589028 C243.443267,39.8856891 243.530623,45.2697579 243.934226,45.5589028 C244.951804,46.2890217 250.135897,45.499176 251.577259,45.5589028 C251.765792,45.5669966 251.954877,45.5527627 252.143686,45.5589028 C254.222521,45.6275608 266.692209,45.7994848 267.429753,45.5589028 C268.1919,45.3107852 267.923752,44.9794965 267.995903,44.8762305 C269.015417,43.4182254 268.079112,43.9485106 267.995903,42.48604 C272.833616,42.5493951 267.33908,44.5209394 270.826933,45.5589028 C271.138205,45.6518423 271.592397,45.5262484 271.959234,45.5589028 C274.058249,45.7467354 273.568672,44.8670203 273.657686,44.8762305 C273.661003,44.8765096 273.668467,44.8765096 273.678972,44.8762305 L274.223837,44.8762305 C274.340495,44.8848825 273.686159,45.6817057 276.488439,45.5589028 C276.676972,45.550809 276.866334,45.5700667 277.05459,45.5589028 C277.985366,45.5039206 278.962307,45.6649598 279.885619,45.5589028 C280.072493,45.5376914 280.264896,45.5820679 280.451493,45.5589028 C282.300605,47.2502333 282.578428,44.9376319 282.716372,44.8762305 L283.848673,44.8762305 C285.359975,45.2544075 286.232145,45.4980596 287.811728,45.5589028 C288.184923,45.573695 288.57111,45.5756487 288.944029,45.5589028 C291.032815,45.4665216 292.538035,45.7506428 293.756309,43.5103276 C294.579826,44.3096627 295.18606,44.8700903 296.304263,44.8762305 C296.476486,44.8770678 296.881195,45.573695 299.701167,45.5589028 C300.075744,45.5572282 300.458614,45.5572282 300.833468,45.5589028 C301.208045,45.5611356 301.591192,45.5524836 301.965769,45.5589028 C304.584492,45.6055121 307.321532,44.8307376 309.891878,44.8762305 C310.340818,44.9485167 310.571922,45.3378576 311.024456,45.5589028 C313.125958,46.5868187 312.627259,45.5362959 313.289058,45.5589028 C313.47455,45.5653221 313.670823,45.5762069 313.855209,45.5589028 C313.911602,45.5538791 313.762877,45.7266404 314.98751,45.5589028 C315.353241,45.5089444 315.759056,45.6256071 316.119811,45.5589028 C317.126608,45.373303 316.767788,45.1318837 318.950564,44.8762305 C319.435994,44.872044 319.525837,45.4107021 320.082865,45.5589028 C320.56636,45.6875667 323.549432,45.579556 324.612347,45.5589028 C325.267235,45.5463434 325.791919,45.7495264 325.744648,44.8762305 C325.931245,44.9002329 326.124201,44.8525072 326.310798,44.8762305 C327.686091,45.0512246 327.386706,44.8684157 327.4431,44.8762305 C328.844654,45.0682495 328.519007,44.8709276 328.575401,44.8762305 C328.762828,44.8935345 328.953572,44.8631129 329.141551,44.8762305 C329.258209,44.8843243 328.499103,45.4880121 331.406154,45.5589028 C331.781284,45.5683921 332.163325,45.5563909 332.538455,45.5589028 C332.913585,45.5619729 333.296179,45.5686712 333.671033,45.5589028 C333.859565,45.5541582 334.048651,45.5683921 334.236907,45.5589028 C334.610378,45.5404824 334.998778,45.5979765 335.369485,45.5589028 C336.298325,45.4617769 336.77408,45.6599361 337.633811,44.8762305 C340.570993,45.9568958 347.315871,48.8062015 344.427894,42.1447038 L344.994045,41.4617524 C346.534926,42.0227382 345.772502,42.3942169 347.258647,42.8273762 C347.772274,48.7665697 348.975068,45.2493837 350.655551,45.5589028 C350.839661,45.5929527 351.035657,45.5323886 351.221978,45.5589028 C356.217262,46.2742296 357.549706,46.2739505 362.54499,45.5589028 C362.7291,45.5326677 362.923991,45.568113 363.111417,45.5589028 C364.318358,45.5005714 365.424673,45.9189385 365.375743,44.8762305 C365.750597,44.8726022 366.133744,44.8879526 366.508321,44.8762305 C366.880963,44.8645084 367.271574,44.9183742 367.640622,44.8762305 C369.645923,45.8963316 379.021687,46.0819314 380.096212,44.8762305 C380.323999,44.6202981 381.078682,37.9755463 380.096212,37.3640438 C381.082829,35.8225886 380.059445,34.1242807 380.096212,32.5836628 C380.167534,29.5928546 380.650476,26.7159182 380.096212,23.7058523 C380.028484,23.0915588 380.720968,22.9595458 380.662363,22.3402285 L380.662363,22.3402285 Z" id="Fill-1" fill="#000000" mask="url(#mask-2)"></path>
                    </g>
                </g>
            </g>
        </g>
    </g>
</svg>