<?xml version="1.0" encoding="UTF-8"?><svg id="Layer_2" xmlns="http://www.w3.org/2000/svg" viewBox="0 0 140.46 7.2"><defs><style>.cls-1{fill:#f7d408;}</style></defs><g id="flag"><path class="cls-1" d="M13.67,4.13c32.46-.09,64.93-.17,97.39-.26,9.16-.02,18.31-.05,27.47-.07.56,0,2.17-.02,1.9-.96-.26-.89-2.28-1.06-2.95-1.11C119.82.51,102.12-.07,84.43,0S48.96.8,31.28,2.17c-10.01.78-20.01,1.77-29.98,2.96-.69.08-1.77.4-1.07,1.21.65.76,2.43.93,3.34.82,17.49-2.1,35.06-3.56,52.65-4.37s34.98-.95,52.47-.46c9.96.28,19.91.77,29.84,1.46l-1.05-2.06c-32.46.09-64.93.17-97.39.26-9.16.02-18.31.05-27.47.07-.56,0-2.17.02-1.9.96.25.85,2.3,1.11,2.95,1.11h0Z"/></g></svg>