<?xml version="1.0" encoding="UTF-8"?><svg id="Layer_2" xmlns="http://www.w3.org/2000/svg" viewBox="0 0 346.85 89.9"><defs><style>.cls-1{fill:#f7d408;}.cls-2{fill:#f9f7ef;}.cls-3{fill:#ad0202;}</style></defs><g id="flag"><path class="cls-1" d="M155.38,60.14c-2.94,0-5.64-1.2-4.98-4.02.54-2.04,2.46-3.3,4.44-3.3,1.14,0,2.1.72,2.04,1.8-.06,1.2-.96,1.92-1.92,2.4-.72.36-1.5.6-1.62,1.38-.12.84,1.02,1.26,2.1,1.26,3.9,0,8.94-4.26,9.18-9.18.18-2.94-3-3.9-4.02-3.78-.3.12-1.02.24-1.38.24-1.02,0-1.32-.18-1.26-.66.06-.42.84-.48,1.32-.48.72,0,1.38.12,1.74.3,2.46-.36,5.58-2.76,6.48-5.46.48-1.56-.12-3.36-1.86-4.26-.42.3-.72.6-1.02.9-2.16,2.22-4.32,5.58-7.44,9.72-5.52,7.5-14.7,13.8-21.9,13.8-2.7,0-6.36-.24-7.2-3.84-.84-3.48,1.8-8.82,10.02-14.28,7.38-4.92,17.28-7.86,24.6-7.62.18,0,.84.06.84.06,2.64-1.56,4.92-2.52,6.9-3.18,2.1-.72,4.62-1.14,6.66-1.08s3.6.78,4.2,1.62c.12.18.24.48,0,.54-.06,0-.12-.12-.3-.3-.66-.78-2.04-1.32-3.84-1.32s-4.08.36-5.94,1.14c-1.74.72-3.42,1.92-4.62,3,3.48.72,5.82,2.52,5.34,5.28-.72,3.54-5.64,5.34-9.78,5.52v.06c4.38.12,7.62,2.28,7.44,5.16-.3,5.04-6.78,8.58-14.16,8.58h-.06ZM131.86,56.6c0,2.34,1.5,3.66,3.6,3.66,5.46,0,9.3-5.52,13.92-11.58,3.9-5.1,8.4-9.12,11.28-11.52.54-.48,1.32-1.02,1.92-1.38,0,0-.48-.06-.72-.06-6.12-.18-15.3,2.34-21.6,7.38-6.42,5.1-8.4,10.08-8.4,13.44v.06Z"/><path class="cls-1" d="M174.4,52.7c-.9.72-1.86,1.56-2.46,2.1-.42.36-.72.6-.9.42-.18-.18.06-.42.42-.78.6-.54,2.46-2.22,4.32-3.42,1.62-1.02,3.36-1.74,5.52-1.74,2.4,0,2.76.24,2.1.96-1.5,1.62-2.34,2.58-3.48,4.02-1.02,1.26-1.62,2.22-1.98,2.94-.36.72-.42,1.14-.18,1.32.24.18.66.06,1.26-.24.72-.36,1.62-.96,2.64-1.8,1.26-1.02,1.86-1.62,2.82-2.46.42-.36.66-.54.84-.36.18.18-.12.42-.48.78-.72.72-2.52,2.34-3.54,3.12-1.98,1.5-3.84,2.64-6.36,2.64-2.04,0-2.64-.78-2.64-1.74,0-.78.42-1.62.84-2.28,1.2-2.04,4.2-5.34,5.1-5.82-1.02.36-2.22,1.08-3.84,2.34ZM186.76,41c1.26,0,1.74.9.78,2.16-1.08,1.38-3.24,2.4-4.14,2.4-.36-.6-.48-1.98-.06-2.94.6-1.38,1.8-1.62,3.36-1.62h.06Z"/><path class="cls-1" d="M187.42,52.1c-1.08.96-2.34,2.16-2.94,2.7-.24.24-.48.3-.6.12-.12-.18.18-.54.66-.96,1.02-.9,2.46-2.1,3.96-3.42,1.5-1.98,4.74-5.88,7.32-8.82,2.04-2.4,4.44-4.92,6.54-6.9.96-.9,2.46-1.74,4.2-1.74,1.02,0,1.74.3,1.92.66-1.26,1.02-5.94,6-9.12,9.9-4.02,4.86-9.24,11.76-9.78,13.5-.24.66-.18,1.08.12,1.26.3.18.72.12,1.02,0,.9-.36,1.86-.96,3.12-1.92.84-.66,2.22-1.86,3-2.58.36-.3.54-.42.72-.24.18.18-.18.48-.66.96-.66.66-2.4,2.16-3.48,2.94-1.86,1.38-4.08,2.7-6.6,2.7-2.1,0-2.76-.96-2.76-2.04,0-1.8,1.92-4.38,3.42-6.06l-.06-.06Z"/><path class="cls-1" d="M199.66,52.1c-1.08.96-2.34,2.16-2.94,2.7-.24.24-.48.3-.6.12-.12-.18.18-.54.66-.96,1.02-.9,2.46-2.1,3.96-3.42,1.5-1.98,4.74-5.88,7.32-8.82,2.04-2.4,4.44-4.92,6.54-6.9.96-.9,2.46-1.74,4.2-1.74,1.02,0,1.74.3,1.92.66-1.26,1.02-5.94,6-9.12,9.9-4.02,4.86-9.24,11.76-9.78,13.5-.24.66-.18,1.08.12,1.26.3.18.72.12,1.02,0,.9-.36,1.86-.96,3.12-1.92.84-.66,2.22-1.86,3-2.58.36-.3.54-.42.72-.24.18.18-.18.48-.66.96-.66.66-2.4,2.16-3.48,2.94-1.86,1.38-4.08,2.7-6.6,2.7-2.1,0-2.76-.96-2.76-2.04,0-1.8,1.92-4.38,3.42-6.06l-.06-.06Z"/><path class="cls-1" d="M211.42,52.7c-.9.72-1.86,1.56-2.46,2.1-.42.36-.72.6-.9.42-.18-.18.06-.42.42-.78.6-.54,2.46-2.22,4.32-3.42,1.62-1.02,3.36-1.74,5.52-1.74,2.4,0,2.76.24,2.1.96-1.5,1.62-2.34,2.58-3.48,4.02-1.02,1.26-1.62,2.22-1.98,2.94-.36.72-.42,1.14-.18,1.32.24.18.66.06,1.26-.24.72-.36,1.62-.96,2.64-1.8,1.26-1.02,1.86-1.62,2.82-2.46.42-.36.66-.54.84-.36.18.18-.12.42-.48.78-.72.72-2.52,2.34-3.54,3.12-1.98,1.5-3.84,2.64-6.36,2.64-2.04,0-2.64-.78-2.64-1.74,0-.78.42-1.62.84-2.28,1.2-2.04,4.2-5.34,5.1-5.82-1.02.36-2.22,1.08-3.84,2.34ZM223.78,41c1.26,0,1.74.9.78,2.16-1.08,1.38-3.24,2.4-4.14,2.4-.36-.6-.48-1.98-.06-2.94.6-1.38,1.8-1.62,3.36-1.62h.06Z"/><path class="cls-1" d="M221.56,54.74c-.66.6-.84.72-1.02.54-.12-.18.06-.42.36-.72.6-.6,1.2-1.08,2.04-1.68.48-.36,1.44-.96,2.28-1.44,1.8-1.02,4.98-2.4,7.56-2.4.96,0,1.62.12,1.62.42,0,.12-.48.24-.96.48-1.32.66-2.76,1.8-4.32,3.3-1.56,1.56-3.42,4.2-3.42,5.52,0,.36.24.78.78.78,1.44,0,4.08-1.92,6.06-3.84-.06-.72.12-1.62.9-2.82.66-.96,1.38-1.44,1.98-1.92,0-.24-.06-.6-.12-.78-.12-.48-.36-.66-.18-.84.12-.12.9.06,1.56.48.6.36,1.2,1.08,1.2,2.1,0,1.44-1.32,3.54-3.36,5.22.12.12.42.18.66.18.78,0,1.68-.42,2.4-.96,1.2-.9,2.34-1.92,2.94-2.46.24-.24.48-.36.66-.24.12.12.12.3-.06.48-.72.66-2.04,1.86-3.3,2.76-.78.54-1.62,1.02-2.76,1.02-.42,0-.96-.18-1.14-.36-1.56,1.2-5.4,2.58-7.8,2.58-3.6,0-4.86-1.32-4.92-3-.06-1.08.42-2.22,1.44-3.24l-.06-.06c-.24.18-.54.48-1.02.9Z"/><path class="cls-1" d="M254.31,57.62c.18-1.02.78-1.86,2.04-3.42.84-1.02,1.8-2.1,2.4-2.94.24-.3.24-.66-.12-.78s-1.02.06-1.86.48c-1.26.66-2.76,1.62-4.32,2.76-2.82,2.04-4.38,3.3-6.9,5.34-.66.54-1.44.66-3,.78-1.92.12-2.16-.12-1.8-.96.54-1.14,1.68-2.64,2.76-4.02,1.02-1.32,1.86-2.28,2.58-3.3.24-.36.36-.66.12-.84-.18-.12-.48-.06-.96.24-.66.42-1.44.96-2.1,1.5-.9.72-2.1,1.74-2.7,2.28-.54.48-.84.66-1.02.48-.06-.12,0-.3.42-.72.84-.78,2.1-1.92,3.12-2.7,1.68-1.32,3.78-2.76,6-2.76,1.86,0,2.4.72,2.4,1.62s-.78,1.92-1.32,2.64c-.9,1.2-1.86,2.34-2.76,3.42l.12.12c1.08-.96,3.24-2.64,5.7-4.38,2.04-1.44,5.04-3.42,8.04-3.42,1.74,0,2.64.72,2.58,1.92-.06,1.08-1.2,2.46-2.16,3.66-.9,1.14-1.44,1.8-1.8,2.4-.42.66-.48,1.14-.12,1.38.3.18.96,0,1.5-.3.9-.48,1.8-1.08,2.46-1.62.84-.66,2.4-2.04,3-2.58.36-.3.54-.42.72-.24.12.12.06.3-.18.54-.72.66-2.76,2.46-3.96,3.36-1.38,1.02-3.66,2.46-5.88,2.52-2.82.06-3.18-1.38-3-2.46Z"/><path class="cls-1" d="M284.73,49.34c1.92,0,2.22.24,1.62.96-1.2,1.44-1.98,2.4-3.18,3.96-.78,1.02-1.8,2.46-2.04,2.94-.24.42-.24.9,0,1.08.3.24.96.12,1.5-.12.6-.24,1.56-.9,2.52-1.68,1.26-1.02,2.34-1.98,2.94-2.52.18-.18.6-.54.78-.36.18.18-.3.66-.54.9-.72.72-2.46,2.22-3.6,3.12-2.58,1.98-4.08,2.64-6,2.64-1.56,0-2.46-.54-2.7-1.56-.18-.72.18-1.62.54-2.1l-.06-.06c-1.56,1.38-4.5,3.72-7.68,3.72-2.16,0-3.6-.6-3.6-2.34,0-1.02.6-2.22,1.92-3.6l-.06-.06s-.48.42-.54.48c-.54.48-.84.6-.96.48-.12-.18.06-.42.42-.78.9-.84,1.62-1.38,2.34-1.86,1.32-.9,2.58-1.56,4.26-2.28,1.44-.6,3.66-1.26,5.82-1.26,1.98,0,2.34,1.08,2.28,1.92,1.56-1.62,1.68-1.62,4.02-1.62ZM278.97,49.76c-1.14,0-3.42,1.8-5.64,3.96-2.22,2.22-3.36,3.96-3.3,4.74.06.42.36.6.78.6,1.14,0,3.42-1.32,5.04-2.82,1.86-1.68,4.2-4.44,4.26-5.4.06-.78-.42-1.08-1.08-1.08h-.06Z"/><path class="cls-1" d="M290.5,52.7c-.9.72-1.86,1.56-2.46,2.1-.42.36-.72.6-.9.42-.18-.18.06-.42.42-.78.6-.54,2.46-2.22,4.32-3.42,1.62-1.02,3.36-1.74,5.52-1.74,2.4,0,2.76.24,2.1.96-1.5,1.62-2.34,2.58-3.48,4.02-1.02,1.26-1.62,2.22-1.98,2.94-.36.72-.42,1.14-.18,1.32.24.18.66.06,1.26-.24.72-.36,1.62-.96,2.64-1.8,1.26-1.02,1.86-1.62,2.82-2.46.42-.36.66-.54.84-.36.18.18-.12.42-.48.78-.72.72-2.52,2.34-3.54,3.12-1.98,1.5-3.84,2.64-6.36,2.64-2.04,0-2.64-.78-2.64-1.74,0-.78.42-1.62.84-2.28,1.2-2.04,4.2-5.34,5.1-5.82-1.02.36-2.22,1.08-3.84,2.34ZM302.85,41c1.26,0,1.74.9.78,2.16-1.08,1.38-3.24,2.4-4.14,2.4-.36-.6-.48-1.98-.06-2.94.6-1.38,1.8-1.62,3.36-1.62h.06Z"/><path class="cls-1" d="M312.51,50.96c0,.78-.6,1.44-2.1,3.3-.66.84-1.44,1.86-2.04,2.82-.36.6-.42,1.02-.18,1.26.3.3.84.12,1.32-.12.84-.42,1.68-.96,2.7-1.74,1.38-1.08,2.28-1.92,2.94-2.52.12-.12.6-.54.78-.36.18.18-.18.54-.48.84-.78.78-2.22,2.04-3.6,3.12-1.32,1.02-3.12,2.4-5.64,2.52-2.88.18-3.6-.96-3.6-1.98,0-1.32,1.08-2.64,2.64-3.96,1.68-1.38,3.72-3,3.9-3.42.24-.66-.96-.6-2.4-.48-.66.06-1.14,0-1.38-.12-.6.66-1.44,1.56-2.34,2.4-.9.84-1.8,1.68-2.46,2.28-.48.42-.72.6-.9.42-.12-.12-.06-.36.3-.66.78-.72,1.74-1.56,2.64-2.4.78-.72,1.74-1.68,2.28-2.28-.54-.36-.66-1.32.06-2.1.54-.6,1.62-1.14,2.7-1.14.96,0,1.62.24,1.92.6-.42.3-.84.66-1.2,1.08-.78.96-.54,1.32.18,1.38,1.5.12,3.9.12,3.96,1.2v.06Z"/><path class="cls-1" d="M326.61,56.72c1.14-.78,2.58-1.92,3.54-2.82.36-.3.54-.3.66-.18.12.18-.12.48-.72,1.02-.72.66-1.92,1.68-3.42,2.7-2.46,1.68-4.98,2.58-7.5,2.7-3.9.18-4.74-1.32-4.74-2.82,0-1.08.6-2.22,1.44-3.12l-.06-.06c-.18.18-.54.48-.66.6-.54.48-.84.6-.96.48-.12-.18,0-.36.42-.78.66-.6,1.32-1.14,1.92-1.56.66-.48,2.16-1.44,3.12-1.92,2.58-1.26,4.92-1.92,7.26-1.92h.06c2.16,0,3.06.84,3,1.86-.12,1.62-2.16,2.82-4.02,3.72-1.8.84-4.68,1.62-6.3,1.86-.18.3-.36.84-.36,1.26,0,.9.54,1.32,1.5,1.32s3.18-.6,5.82-2.34ZM324.15,54.02c1.56-1.2,2.52-2.7,2.7-3.48.12-.54-.06-.9-.6-.9-.66,0-1.8.6-3.54,2.52-1.38,1.5-2.16,2.58-2.76,3.72,1.02-.12,2.58-.66,4.2-1.86Z"/><path class="cls-1" d="M342.09,57.02c1.68-1.08,3.24-2.52,3.9-3.12.3-.24.6-.48.78-.3.12.12.12.24-.24.6-.72.66-2.22,2.04-3.72,3.06-1.56,1.08-2.88,1.56-4.44,2.04-1.62.48-4.02.84-5.88.84-3.24,0-5.16-1.62-5.1-3.54.06-2.04,1.74-3.12,3-3.12s1.92.66,1.92,1.38c0,.54-.24.96-.9,1.5-.6.48-.96,1.02-.96,1.74.06.96.84,1.32,1.56,1.32,1.32,0,2.58-.9,3.84-2.94,1.32-2.1,2.16-5.52,2.82-6.48l-.06-.06c-.48.48-1.92,1.62-2.64,2.16-.96.72-2.34,1.68-2.88,1.98-.3.18-.6.36-.72.18-.12-.18.06-.36.42-.6.84-.54,1.74-1.2,2.7-1.92,1.44-1.08,2.76-2.16,3.6-2.88.12-.24.48-.9.96-1.44.48-.54,1.26-.78,1.86-.78,1.38,0,1.74.66.12,1.8-.54.36-1.02.54-1.44.9-.48.48-.3,1.2.12,1.8.96,1.5,1.2,3.24.54,4.92-.42,1.02-.96,1.68-1.62,2.22.66-.24,1.5-.66,2.46-1.26Z"/><path class="cls-1" d="M129.82,69.44h8.92v1.46h-7.04v4.3h6.32v1.44h-6.32v5.81h-1.88v-13.01Z"/><path class="cls-1" d="M146.98,82.64c-1.27,0-2.38-.26-3.31-.78s-1.65-1.28-2.15-2.27-.76-2.19-.76-3.6.25-2.63.76-3.63c.51-1,1.23-1.76,2.16-2.29.93-.53,2.03-.79,3.29-.79s2.36.26,3.29.79c.92.53,1.64,1.29,2.14,2.29.5,1,.75,2.21.75,3.64s-.25,2.61-.75,3.6c-.5.99-1.21,1.75-2.13,2.27s-2.02.78-3.3.78ZM146.98,81.19c.88,0,1.64-.18,2.26-.55.62-.37,1.09-.93,1.42-1.7.33-.77.49-1.75.49-2.94s-.17-2.21-.5-2.99c-.33-.78-.8-1.36-1.42-1.73-.62-.38-1.37-.56-2.25-.56s-1.62.19-2.25.57c-.63.38-1.11.96-1.45,1.74s-.5,1.77-.5,2.98.17,2.17.5,2.94.82,1.33,1.45,1.7c.63.37,1.38.55,2.25.55Z"/><path class="cls-1" d="M166.35,82.46h-1.94l-2.61-5.61h-3.85v5.61h-1.83v-13.01h5.54c1.03,0,1.89.14,2.58.43.69.29,1.21.69,1.55,1.22.34.53.51,1.17.51,1.9s-.14,1.3-.41,1.76c-.27.47-.62.84-1.04,1.13-.42.29-.86.51-1.32.66l2.81,5.9ZM161.06,75.47c1.08,0,1.91-.2,2.5-.6.59-.4.88-.99.88-1.78s-.26-1.34-.79-1.72-1.24-.57-2.15-.57h-3.55v4.66h3.12Z"/><path class="cls-1" d="M174.07,82.46v-13.01h9.03v1.47h-7.19v4.25h6.46v1.46h-6.47v4.34l7.38.02v1.48h-9.22Z"/><path class="cls-1" d="M195.93,69.44h1.83v13.01h-1.63l-7.68-10.26v10.26h-1.83v-13.01h1.75l7.56,10.12v-10.12Z"/><path class="cls-1" d="M201.54,69.44s.19,0,.42,0c.23,0,.52,0,.86,0,.34,0,.69,0,1.05,0,.36,0,.7,0,1,.01,1.75.02,3.18.28,4.27.78,1.09.49,1.89,1.21,2.41,2.16s.77,2.1.77,3.47-.28,2.65-.83,3.63c-.55.98-1.39,1.72-2.51,2.21-1.13.5-2.56.75-4.29.75h-3.14v-13.01ZM203.42,70.87v10.15h1.26c1.18,0,2.2-.17,3.05-.5s1.51-.87,1.97-1.62c.46-.75.69-1.75.69-3.01s-.22-2.25-.67-2.98-1.09-1.26-1.93-1.57-1.85-.47-3.03-.47h-1.34Z"/><path class="cls-1" d="M215.29,69.44h1.87v11.52h6.76v1.49h-8.64v-13.01Z"/><path class="cls-1" d="M226.71,82.46v-13.01h9.03v1.47h-7.19v4.25h6.46v1.46h-6.47v4.34l7.38.02v1.48h-9.22Z"/><path class="cls-1" d="M243.93,82.64c-.67,0-1.33-.08-1.96-.23-.63-.15-1.21-.38-1.72-.69-.51-.31-.94-.69-1.28-1.14s-.55-.98-.64-1.58h1.92c.12.49.35.91.71,1.24.35.34.79.59,1.3.76.51.17,1.07.25,1.67.25.67,0,1.27-.09,1.8-.26.53-.17.95-.42,1.26-.73.31-.32.47-.7.47-1.14,0-.39-.1-.73-.29-1.02-.2-.29-.48-.53-.85-.72-.37-.19-.82-.34-1.35-.45l-2.81-.59c-1.06-.21-1.88-.58-2.48-1.12-.6-.54-.9-1.25-.92-2.14,0-.75.22-1.41.66-1.98.44-.57,1.04-1.01,1.81-1.33.77-.32,1.65-.48,2.64-.48,1.14,0,2.1.18,2.88.53.78.35,1.37.82,1.76,1.4.4.58.6,1.19.6,1.85h-1.89c-.06-.59-.25-1.05-.57-1.4-.32-.34-.72-.59-1.2-.74-.48-.15-1.01-.22-1.57-.22-.41,0-.8.05-1.18.14-.38.09-.72.23-1.02.42-.3.19-.54.42-.72.69-.18.28-.27.6-.27.97,0,.46.18.84.53,1.13s1,.55,1.93.76l2.72.59c.71.14,1.29.34,1.75.61s.8.58,1.05.92c.25.34.42.7.51,1.07s.14.74.14,1.1c0,.65-.21,1.25-.64,1.79-.43.54-1.04.96-1.85,1.28s-1.77.47-2.9.47Z"/><path class="cls-1" d="M257.39,82.64c-.67,0-1.33-.08-1.96-.23-.63-.15-1.21-.38-1.72-.69-.51-.31-.94-.69-1.28-1.14s-.55-.98-.64-1.58h1.92c.12.49.35.91.71,1.24.35.34.79.59,1.3.76.51.17,1.07.25,1.67.25.67,0,1.27-.09,1.8-.26.53-.17.95-.42,1.26-.73.31-.32.47-.7.47-1.14,0-.39-.1-.73-.29-1.02-.2-.29-.48-.53-.85-.72-.37-.19-.82-.34-1.35-.45l-2.81-.59c-1.06-.21-1.88-.58-2.48-1.12-.6-.54-.9-1.25-.92-2.14,0-.75.22-1.41.66-1.98.44-.57,1.04-1.01,1.81-1.33.77-.32,1.65-.48,2.64-.48,1.14,0,2.1.18,2.88.53.78.35,1.37.82,1.76,1.4.4.58.6,1.19.6,1.85h-1.89c-.06-.59-.25-1.05-.57-1.4-.32-.34-.72-.59-1.2-.74-.48-.15-1.01-.22-1.57-.22-.41,0-.8.05-1.18.14-.38.09-.72.23-1.02.42-.3.19-.54.42-.72.69-.18.28-.27.6-.27.97,0,.46.18.84.53,1.13s1,.55,1.93.76l2.72.59c.71.14,1.29.34,1.75.61s.8.58,1.05.92c.25.34.42.7.51,1.07s.14.74.14,1.1c0,.65-.21,1.25-.64,1.79-.43.54-1.04.96-1.85,1.28s-1.77.47-2.9.47Z"/><path class="cls-1" d="M274.99,82.46v-13.01h4.84c1.02,0,1.93.16,2.73.47.8.31,1.43.77,1.89,1.39.46.61.69,1.37.69,2.26s-.21,1.61-.64,2.22c-.42.61-1.02,1.07-1.78,1.39-.76.32-1.64.48-2.64.48h-3.21v4.81h-1.88ZM276.86,76.24h3.18c.98,0,1.78-.25,2.4-.75.61-.5.92-1.18.92-2.03s-.32-1.52-.95-1.96c-.63-.44-1.45-.67-2.46-.67h-3.09v5.41Z"/><path class="cls-1" d="M293.06,82.64c-1.27,0-2.38-.26-3.31-.78s-1.65-1.28-2.15-2.27-.76-2.19-.76-3.6.25-2.63.76-3.63c.51-1,1.23-1.76,2.16-2.29.93-.53,2.03-.79,3.29-.79s2.36.26,3.29.79c.92.53,1.64,1.29,2.14,2.29.5,1,.75,2.21.75,3.64s-.25,2.61-.75,3.6c-.5.99-1.21,1.75-2.13,2.27s-2.02.78-3.3.78ZM293.06,81.19c.88,0,1.64-.18,2.26-.55.62-.37,1.09-.93,1.42-1.7.33-.77.49-1.75.49-2.94s-.17-2.21-.5-2.99c-.33-.78-.8-1.36-1.42-1.73-.62-.38-1.37-.56-2.25-.56s-1.62.19-2.25.57c-.63.38-1.11.96-1.45,1.74s-.5,1.77-.5,2.98.17,2.17.5,2.94.82,1.33,1.45,1.7c.63.37,1.38.55,2.25.55Z"/><path class="cls-1" d="M318.52,69.44l-4.18,13.01h-1.69l-3.14-10.09-3.19,10.09h-1.64l-4.13-13.01h1.85l3.17,10.36,3.23-10.36h1.44l3.22,10.36,3.23-10.36h1.84Z"/><path class="cls-1" d="M320.87,82.46v-13.01h9.03v1.47h-7.19v4.25h6.46v1.46h-6.47v4.34l7.38.02v1.48h-9.22Z"/><path class="cls-1" d="M343.65,82.46h-1.94l-2.61-5.61h-3.85v5.61h-1.83v-13.01h5.54c1.03,0,1.89.14,2.58.43.69.29,1.21.69,1.55,1.22.34.53.51,1.17.51,1.9s-.14,1.3-.41,1.76c-.27.47-.62.84-1.04,1.13-.42.29-.86.51-1.32.66l2.81,5.9ZM338.36,75.47c1.08,0,1.91-.2,2.5-.6.59-.4.88-.99.88-1.78s-.26-1.34-.79-1.72-1.24-.57-2.15-.57h-3.55v4.66h3.12Z"/><path class="cls-3" d="M71.01,68.71c23.98-8.39,43.89-21.01,54.52-33.3-6.65,13.84-26.13,28.72-50.86,37.38-20.18,7.06-39.18,8.35-51.82,4.54,13.41.43,30.33-2.38,48.16-8.62Z"/><path class="cls-3" d="M85.06,78.23c16.6-8.62,29.81-19.89,36.27-29.97-3.41,10.78-16.05,23.66-33.17,32.55-13.97,7.25-27.69,10.17-37.3,8.72,9.82-1.08,21.86-4.9,34.21-11.31Z"/><path class="cls-3" d="M58.46,55.41c29.79-5.95,55.47-17.57,70.1-30.36-10.18,15.28-35.73,29.66-66.44,35.8-25.07,5.01-47.79,3.37-62.11-3.24,15.8,2.74,36.32,2.23,58.46-2.19Z"/><polygon class="cls-2" points="136.8 6.98 146.82 0 143.29 11.69 153.02 19.07 140.81 19.32 136.8 30.85 132.79 19.32 120.58 19.07 130.31 11.69 126.77 0 136.8 6.98"/></g></svg>